<svg width="34" height="23" viewBox="0 0 34 23" fill="none" xmlns="http://www.w3.org/2000/svg">
<path d="M0.797534 5.9289C0.982146 5.83772 1.22414 5.93522 1.40806 6.06904C1.4657 6.11055 1.43651 6.29607 1.4763 6.33308C1.55412 6.40521 1.62662 6.31422 1.70352 6.40016C1.729 6.42954 1.69728 6.72342 1.724 6.74751C1.87044 6.87738 2.00898 6.80253 2.15733 6.865C2.88803 7.17321 3.6063 7.28353 4.34594 7.41743C4.58982 7.46132 4.88629 7.72803 5.13819 7.61139C5.1676 7.59752 5.15007 7.33957 5.15566 7.3183C5.24341 6.99283 5.21423 7.51358 5.27153 7.58277C5.49893 7.85595 5.75181 7.87971 5.97066 7.78016C6.06376 7.73705 5.97041 7.22469 6.06416 7.51227C6.07067 7.5317 6.04704 7.80563 6.07258 7.83484C6.13048 7.90055 6.24034 7.85159 6.28522 7.8733C6.37171 7.91651 6.38602 7.91375 6.46782 7.91687C6.57965 7.92353 6.71267 8.05969 6.83265 7.99762C6.85827 7.98356 6.82436 7.70276 6.8652 7.65497C6.90609 7.60727 7.01424 7.63108 7.0507 7.69727C7.08717 7.7635 7.07164 7.98421 7.0781 8.03479C7.13119 8.46178 7.2563 7.8704 7.27239 7.85578C7.56587 7.60658 7.81755 7.94347 8.09304 7.94251C8.30218 7.94107 8.5258 7.82985 8.7248 7.8451C8.96188 7.86435 9.16282 8.01652 9.39314 7.99036C9.41744 7.98792 9.38896 7.65776 9.41865 7.65412C9.73406 7.6157 10.0473 7.65169 10.3613 7.87458C10.3928 7.89722 10.3522 8.1871 10.3837 8.22705C10.5764 8.46528 10.8812 9.03756 10.9956 7.77546C11.1261 7.82474 11.2845 7.87566 11.4013 8.13007C11.4766 8.29381 11.4034 8.60961 11.4959 8.47486C11.5168 8.44483 11.4897 8.16828 11.5209 8.14417C11.6526 8.04293 11.7965 8.13282 11.9267 7.98993C11.9532 7.96022 11.946 7.71241 11.9535 7.66779C12.0166 7.30641 12.1216 7.9038 12.1445 7.94721C12.3189 8.27091 12.4462 8.14353 12.6086 8.15143C12.6463 8.15341 12.6018 7.82055 12.638 7.81049C12.8262 7.76279 13.021 7.79139 13.2052 7.93909C13.2462 7.97275 13.2085 8.25628 13.2281 8.28687C13.3144 8.41829 13.3335 7.88277 13.4163 7.99848C13.4338 8.02218 13.424 8.26491 13.4271 8.29157C13.477 8.71003 13.5203 8.1171 13.5331 8.10401C13.6952 7.92514 13.7989 8.54413 13.9555 8.45648C13.9742 8.44537 13.932 8.13825 13.9846 8.1258C14.3355 8.04101 14.7067 8.12538 15.054 8.37104C15.108 8.40882 15.0695 8.63953 15.0729 8.66797C15.1282 9.11236 15.1641 8.51693 15.1817 8.49451C15.3206 8.3331 15.4504 8.83243 15.5448 8.12323C16.1331 8.36935 16.7187 7.9711 17.3022 8.60645C17.3096 8.61381 17.2963 8.90705 17.3111 8.92047C17.4893 9.08513 17.4551 8.62937 17.573 8.07196C17.6027 7.932 17.6931 8.60497 17.7011 8.6543C17.7302 8.83608 17.7 9.27235 17.7097 9.30756C17.7905 9.584 17.7773 8.14122 17.8862 8.14075C17.8896 8.14316 17.8753 8.40872 17.8844 8.43512C17.9128 8.51802 17.941 8.41249 17.9688 8.50391C18.0323 8.71544 18.055 9.4165 18.1521 9.00848C18.1644 8.95553 18.1456 8.13712 18.2429 8.17579C18.2816 8.19189 18.4532 8.17786 18.5012 8.2309C18.5493 8.28387 18.5163 8.5476 18.5197 8.55902C18.6491 8.90776 18.6 9.0523 18.6649 9.5686C18.7297 10.083 18.7117 8.85617 18.7381 8.71924C18.7646 8.5827 18.8595 8.87043 18.8828 8.97046C18.9061 9.07053 18.877 9.23811 18.8977 9.29474C19.0351 9.66472 18.958 8.6858 19.0033 8.49109C19.11 8.03005 19.1931 8.93984 19.2909 9.02899C19.3173 9.05307 19.2957 8.84586 19.3193 8.82648C19.4125 8.75247 19.4686 9.03636 19.5746 8.77606C19.592 8.73365 19.6777 8.18665 19.7332 8.58808C19.7411 8.64596 19.7187 8.87268 19.7585 8.92346C19.8178 8.99968 19.9248 9.04923 19.9886 8.97345C20.0357 8.91738 19.9817 8.5438 20.041 8.65985C20.0674 8.71167 20.0185 8.93022 20.068 9.00934C20.1173 9.08844 20.2432 9.07884 20.2911 9.07129C20.3389 9.06358 20.3127 8.7802 20.3166 8.76111C20.34 8.65175 20.4318 8.51511 20.4399 8.51544C20.849 8.48085 21.2263 8.95851 21.6246 8.80042C21.6559 8.78842 21.6351 8.48959 21.6398 8.48468C21.7468 8.35948 21.6625 9.15399 21.7372 9.41992C21.7264 8.81352 21.7705 8.92332 21.8459 8.85681C21.8823 8.82427 21.8625 8.58947 21.8658 8.56543C21.9197 8.20879 21.9572 8.66944 21.9668 8.76367C22.0025 9.11032 22.0413 8.70073 22.0656 8.93244C22.0899 9.1624 22.034 9.50333 22.1063 9.49896C22.1266 9.28189 22.0729 8.71462 22.1278 8.62268C22.3349 8.27492 22.7215 8.72 22.888 8.76624C23.0542 8.81243 23.1079 8.77238 23.2047 8.85083C23.3796 8.99268 23.3155 8.5718 23.4241 8.37915C23.5331 8.18653 23.4801 9.22209 23.4958 9.4447C23.5112 9.66722 23.5279 9.43816 23.5471 9.56049C23.5661 9.68278 23.5249 9.83414 23.5697 9.88006C23.6145 9.92594 23.7371 9.53007 23.753 9.2973C23.7866 8.80416 23.7314 8.28659 23.8501 8.46845C23.8569 8.47924 23.8347 8.75154 23.8609 8.77905C24.0684 8.98868 24.2841 9.00167 24.4914 9.18707C24.5199 9.21299 24.4944 9.51591 24.511 9.53442C24.6838 9.72818 24.622 9.21742 24.7167 8.65003C24.6954 9.4051 24.7478 9.86706 24.8789 9.87152C24.9578 9.87446 24.9442 9.54469 24.9952 9.31226C25.0105 9.24219 25.0663 9.46863 25.0764 9.31354C25.1097 8.80657 25.0572 8.23905 25.1924 8.46503C25.1983 8.47577 25.1794 8.75328 25.1999 8.77008C25.3324 8.88009 25.3483 8.34981 25.4915 8.28559C25.6037 8.2352 25.8034 8.55856 25.9312 8.61115C25.9285 9.46007 26.0493 9.26568 26.0982 8.68036C26.1812 8.70432 26.2708 8.67123 26.351 8.75214C26.3786 8.77972 26.3604 9.02551 26.3639 9.05206C26.4173 9.46867 26.4533 8.89922 26.4712 8.87689C26.6653 8.65988 26.8234 9.09148 27.0086 8.66968C27.0152 8.65449 27.0258 8.0648 27.0754 8.49536C27.0786 8.52504 27.0174 8.79334 27.1045 8.81409C27.1916 8.83488 27.3559 9.151 27.4769 8.87775C27.5062 8.81196 27.5802 8.33326 27.6396 8.70728C27.6476 8.75807 27.6389 8.92719 27.6503 9.0213C27.6873 9.32118 27.7074 8.72515 27.7509 9.23151C27.7943 9.73784 27.8846 10.117 28.0066 9.7677C28.0105 9.75754 28.0394 9.28513 28.0777 9.2926C28.139 9.30493 28.2259 9.40335 28.2899 9.40027C28.3205 9.39862 28.3009 9.10528 28.3062 9.09992C28.5121 8.93554 28.6586 9.19705 28.8792 9.31055C28.9196 9.33193 29.0358 8.93192 29.114 9.24817C29.2 9.59437 29.1117 11.0345 29.3092 10.6914C29.3889 10.5542 29.4898 8.7271 29.6329 9.67371C29.9106 9.43914 30.1675 9.92361 30.4459 9.58868C30.4585 9.57384 30.4981 9.06392 30.5275 9.07086C30.5712 9.08215 30.5952 9.32048 30.6264 9.33618C30.7572 9.40797 30.8768 9.20406 31.0029 9.23578C31.0508 9.2473 31.034 9.49373 31.0911 9.50751C31.1482 9.52105 31.1862 9.19655 31.2636 9.35327C31.322 9.47273 31.3804 10.136 31.4579 10.2133C31.4608 9.55907 31.5141 9.57255 31.6087 9.39984C31.6269 9.36633 31.6074 9.13862 31.616 9.11102C31.651 8.99366 31.6834 9.18238 31.7166 9.05463C31.7247 9.02394 31.7251 8.80052 31.7317 8.76282C31.7879 8.43378 31.8806 8.93636 31.8965 9.02387C31.9574 9.3562 31.9859 9.0656 32.0327 9.19647C32.0794 9.32733 32.0096 9.4909 32.0641 9.57031C32.1772 9.73456 32.3224 9.69847 32.4372 9.70874C32.4831 9.71146 32.4518 9.41321 32.4584 9.40668C32.5531 9.33103 32.6489 9.64828 32.7014 9.0542C32.7671 10.5903 32.7585 8.90521 32.8939 9.21271C32.9046 9.23758 32.9182 9.96397 32.8772 10.0706C32.8363 10.1772 32.7742 9.9501 32.7174 10.1163C32.7039 10.1553 32.6268 10.836 32.6163 10.8773C32.5339 11.1995 32.5223 10.114 32.5179 10.0544C32.4685 9.41097 32.3743 10.1443 32.3495 10.1949C32.2361 10.4271 32.1397 10.2745 32.0448 10.4402C31.9827 10.5473 31.9766 11.2583 31.9279 11.2366C31.7659 11.1646 31.7093 10.1727 31.5566 11.0328C31.5239 11.2162 31.5564 11.9933 31.4391 11.3823C31.4318 11.3437 31.3447 10.7847 31.2944 11.1383C31.288 11.1829 31.2882 11.4094 31.2799 11.4284C31.2241 11.5515 31.1868 11.371 31.126 11.4575C31.0651 11.5439 30.992 11.6727 30.9225 11.5959C30.8806 11.5499 30.8269 11.128 30.8069 11.0247C30.7503 10.727 30.6896 11.215 30.6546 10.8546C30.6192 10.4924 30.6883 9.94234 30.5956 9.70831C30.5922 10.2967 30.5843 10.9007 30.5788 11.4925C30.3756 11.4718 30.1757 11.2815 29.9719 11.3075C29.9466 11.3113 29.9725 11.6276 29.9454 11.6399C29.8311 11.6901 29.7312 11.4646 29.6127 11.5544C29.521 11.6252 29.4204 11.9601 29.3244 12.0445C29.2658 11.3712 29.1235 11.5997 29.02 11.5382C28.9838 11.5169 28.9862 11.3371 28.9605 11.2784C28.8633 11.0615 28.9088 11.6565 28.8822 11.7501C28.7679 12.1498 28.7581 10.803 28.6233 10.8362C28.6161 10.8375 28.5289 11.5554 28.5168 11.6002C28.4404 11.8917 28.5042 11.3503 28.4564 11.2972C28.3691 11.2003 28.3084 11.0289 28.206 11.2391C28.1762 11.3014 28.1046 11.7489 28.0466 11.4028C28.0389 11.3574 28.0432 11.1202 28.037 11.1063C27.9259 10.8746 27.9229 11.6202 27.8594 11.8727C27.7959 12.1252 27.6978 11.6105 27.6778 11.4622C27.6256 11.0784 27.7179 11.2981 27.7207 11.2605C27.7539 10.8123 27.6824 10.8895 27.6277 10.8516C27.6198 10.1205 27.5433 10.1644 27.571 10.8153C27.5742 10.8864 27.6167 10.8182 27.6277 10.8516C27.5797 11.5689 27.4957 11.6608 27.4029 10.9905C27.3594 10.6763 27.4005 10.31 27.2685 10.444C27.2086 10.5045 27.2318 11.0079 27.1789 11.1451C27.0582 11.4583 26.9012 10.9887 26.7768 11.0627C26.7316 11.0895 26.7756 11.3651 26.7447 11.3929C26.6628 11.4677 26.5905 11.261 26.5082 11.3669C26.5007 11.3768 26.5189 11.6653 26.4934 11.6689C26.2993 11.7024 26.1304 11.5177 25.9278 11.5126C25.8299 11.5102 25.655 11.6693 25.5536 11.6373C25.3778 11.5836 25.1617 11.1642 25.0115 11.266C24.9136 11.3313 24.9351 11.6198 24.8931 11.8163C24.8122 12.1974 24.6689 11.5149 24.6496 11.4092C24.649 11.4057 24.7333 11.3377 24.6883 11.1896C24.6622 10.881 24.6505 11.4078 24.6496 11.4092C24.6369 11.3409 24.4686 11.2754 24.4352 11.3306C24.417 11.3607 24.4272 11.634 24.4177 11.6446C24.1927 11.8892 23.9672 11.9587 23.739 11.8309C23.7349 11.8253 23.741 11.5196 23.7315 11.5104C23.5994 11.3745 23.5148 11.7485 23.4058 11.9706C23.2968 12.1925 23.2104 12.1182 23.1459 11.5933C23.0637 11.6594 22.9457 11.4274 22.8778 11.2866C22.81 11.1458 22.8005 11.7409 22.7945 11.7527C22.6082 12.1293 22.5005 11.7886 22.3073 11.7356C22.2154 11.7094 22.0331 11.7957 21.9337 11.8608C21.855 11.9132 21.8077 11.7737 21.7352 11.8629C21.7254 11.8748 21.7353 12.1398 21.7323 12.15C21.6515 12.4671 21.6903 11.8192 21.6736 11.7035C21.6131 11.2828 21.5757 11.0587 21.4722 11.2566C21.4483 11.302 21.3787 12.2347 21.3352 12.2893C21.2786 12.3585 21.3 12.0242 21.2407 12.1052C21.2356 12.1118 21.2367 12.318 21.2001 12.309C21.0303 12.2694 20.8452 12.1494 20.6687 12.1701C20.6446 12.1721 20.6755 12.4993 20.6407 12.5076C20.4773 12.5464 20.2982 12.5343 20.139 12.3812C20.0998 12.3424 20.1244 12.1134 20.1159 12.0453C20.0637 11.6338 19.9896 12.2318 19.9774 12.2432C19.6859 12.5305 19.4629 11.9894 19.1658 12.247C19.1496 12.2621 19.0252 12.9032 18.9696 12.3534C18.9658 12.3168 18.9109 11.7543 18.8623 12.1389C18.8593 12.163 18.8935 12.4525 18.8338 12.423C18.774 12.3936 18.6779 12.587 18.5957 12.2688C18.5698 12.1686 18.5083 11.6075 18.4307 12.0547C18.4257 12.086 18.306 13.0973 18.2632 12.3995C18.2563 12.2847 18.2635 11.5463 18.171 11.9249C18.1533 11.9983 18.1854 12.163 18.1388 12.2658C18.0674 12.4243 17.9728 12.2265 17.8851 12.5555C17.8698 12.6137 17.8046 13.1149 17.7523 12.7345C17.7442 12.6749 17.7597 12.4284 17.7321 12.4008C17.6009 12.2685 17.4635 12.4334 17.3302 12.2628C17.283 12.2029 17.3071 11.8044 17.2579 11.6976C17.2087 11.5908 17.1096 11.4881 17.0581 11.6702C17.0066 11.8524 17.0629 12.4876 16.9857 12.5384C16.6504 12.7591 16.3181 12.3865 15.9832 12.332C15.9336 12.3239 15.9747 12.5512 15.9015 12.5555C15.6317 12.5724 15.1658 12.7855 14.9316 12.3025C14.744 11.9157 14.9801 11.6213 14.8367 11.4639C14.7675 11.3888 14.6927 12.1272 14.676 12.1504C14.5128 12.3866 14.3994 12.0595 14.2526 12.1598C14.2223 12.1807 14.252 12.48 14.2262 12.4944C14.138 12.5463 14.0454 12.4127 13.9611 12.4371C13.9233 12.4488 13.9303 12.6774 13.8955 12.6597C13.8123 12.6201 13.7388 12.5241 13.6576 12.3098C13.6502 12.2903 13.7001 12.0059 13.6385 11.9954C13.5389 11.979 13.4152 11.7677 13.3006 11.986C13.2666 12.0516 13.2652 12.574 13.1921 12.2132C13.1768 12.1379 13.1964 11.5106 13.1112 12.0526C13.0969 12.1427 12.9538 12.8738 12.8836 12.4025C12.8651 12.2785 12.8178 11.7651 12.7769 11.8458C12.7714 11.8587 12.7936 12.1393 12.7597 12.1667C12.6402 12.2583 12.5151 12.2283 12.3923 12.3162C12.3596 12.3402 12.4084 12.6306 12.3595 12.6572C12.2252 12.7306 12.0576 12.6566 11.9262 12.5657C11.8778 12.5317 11.9113 12.2911 11.9078 12.2649C11.8511 11.8392 11.8176 12.4139 11.7988 12.4474C11.6818 12.648 11.5928 12.3781 11.485 12.4495C11.4552 12.4685 11.4763 12.7425 11.4704 12.767C11.409 13.0057 11.4547 12.5136 11.4159 12.4593C11.307 12.3057 11.1855 12.3278 11.0754 12.3628C11.035 12.376 11.0804 12.6938 11.0441 12.702C10.8292 12.7568 10.6059 12.7264 10.3961 12.5512C10.3567 12.5176 10.3815 12.273 10.3733 12.2171C10.3165 11.8261 10.2334 12.3594 10.2143 12.4102C10.1273 12.6422 10.0935 12.4258 10.0167 12.4662C9.64153 12.6672 9.17826 12.5239 8.82408 12.4354C8.36256 12.3215 8.00444 12.0887 7.56433 12.1492C7.53636 12.1527 7.56456 12.4782 7.54045 12.4854C7.22914 12.5639 6.92265 12.4367 6.61071 12.5307C6.58512 12.5378 6.62201 12.8464 6.58093 12.8682C6.49665 12.9151 6.3899 12.8984 6.3047 12.7999C6.26314 12.7524 6.31888 12.4876 6.27705 12.4452C6.17964 12.346 6.07523 12.324 5.97518 12.3735C5.9326 12.3952 5.99684 12.7108 5.9415 12.7144C5.56452 12.7457 5.19428 12.8001 4.81332 12.3914C4.78721 12.3633 4.76429 11.722 4.70876 11.845C4.70458 12.023 4.70481 12.2323 4.70298 12.4226C4.15419 12.5251 3.611 12.3027 3.06067 12.2684C3.03747 12.267 3.07757 12.6068 3.03265 12.6059C2.77265 12.6009 2.52017 12.695 2.25422 12.3572C2.22783 12.3242 2.24137 11.7263 2.16361 11.8168C2.1499 11.8333 2.03278 11.913 2.0025 12.0428C1.99838 12.0624 2.01975 12.3414 1.98201 12.3495C1.7627 12.3919 1.53286 12.3282 1.31393 12.1577C1.27859 12.1297 1.31622 11.8325 1.29106 11.8099C1.11253 11.6522 0.918353 11.8781 0.747767 11.6083C0.633582 11.4266 0.675857 10.9129 0.61518 10.4073C0.606598 10.3359 0.535892 10.3246 0.532236 10.0305C0.522848 9.29069 0.557096 8.48066 0.543044 7.69214C0.540075 7.5223 0.44538 7.70523 0.501445 7.29481C0.505362 7.26734 0.574016 7.13112 0.590925 6.99189C0.602698 6.89563 0.581483 6.59644 0.605504 6.47321C0.629522 6.35011 0.655915 6.6009 0.695738 6.45612C0.735542 6.30956 0.71804 5.9692 0.797534 5.9289ZM22.5722 10.6572C22.5093 10.3714 22.5001 11.4182 22.5681 11.1678C22.5713 11.1544 22.5754 10.6712 22.5722 10.6572ZM30.1769 10.4919C30.0947 10.0302 30.0385 10.7091 30.0964 11.0657C30.1544 11.4219 30.2019 10.6318 30.1769 10.4919ZM31.0289 10.1548C30.9329 9.79073 30.9178 11.2752 31.0206 10.9751C31.0266 10.9581 31.0346 10.1759 31.0289 10.1548ZM0.896565 10.2633C0.895697 10.2494 0.844871 10.2359 0.843656 10.2496C0.816592 10.5821 0.918224 10.609 0.896565 10.2633ZM31.8745 9.78778C31.8445 9.58698 31.7582 9.81878 31.7954 10.0685C31.8254 10.2694 31.9118 10.0376 31.8745 9.78778ZM19.2935 9.53998C19.2925 9.52438 19.2561 9.51033 19.2568 9.59851C19.2593 9.88251 19.31 9.80236 19.2935 9.53998ZM33.3116 9.77069C33.0992 9.71481 32.9705 8.48859 33.2017 8.62696C33.2436 8.65199 33.1115 9.01799 33.1648 9.12854C33.2623 9.32995 33.327 8.56003 33.4265 8.9726C33.4446 9.04811 33.3237 9.7766 33.3112 9.7724C33.3113 9.77183 33.3114 9.77126 33.3116 9.77069ZM22.536 9.39984C22.5347 9.386 22.4843 9.37287 22.4831 9.3866C22.4558 9.71894 22.5574 9.74557 22.536 9.39984ZM17.1672 8.8927C17.1644 8.8632 17.0474 8.83562 17.0435 8.86279C16.9825 9.40626 17.2191 9.46364 17.1672 8.8927ZM25.9332 8.63379C25.9883 8.29946 26.0541 8.26009 26.098 8.67993C26.0433 8.65765 25.9882 8.65436 25.9332 8.63379Z" fill="#4D5AEE"/>
<path d="M0.993369 4.3537C1.06661 4.25927 1.18817 4.35039 1.28769 4.47851C1.31837 4.51826 1.31509 4.70431 1.33742 4.74004C1.381 4.80967 1.41253 4.71654 1.45678 4.79981C1.47182 4.8283 1.47419 5.12263 1.48966 5.14577C1.5734 5.27052 1.64157 5.1909 1.72341 5.24779C2.11878 5.52085 2.50443 5.60218 2.90517 5.69638L2.753 5.71587C2.75898 5.71842 2.76519 5.72092 2.77162 5.72338C2.85104 5.75442 3.03273 5.988 3.11365 5.84756C3.12316 5.8309 3.05318 5.58249 3.05046 5.56126C3.00788 5.2364 3.12373 5.74421 3.16529 5.80501C3.33081 6.04466 3.46034 6.03343 3.5368 5.90724C3.56957 5.85269 3.38096 5.37413 3.505 5.63735C3.51353 5.65508 3.58046 5.92095 3.60063 5.94544C3.64625 6.00047 3.68473 5.93773 3.7129 5.95179C3.76749 5.98028 3.77482 5.97513 3.81533 5.96579C3.87004 5.95571 3.9765 6.06477 4.01794 5.9861C4.02645 5.96857 3.92301 5.70691 3.9285 5.65489C3.93459 5.60278 3.99205 5.60901 4.03081 5.6659C4.0692 5.72297 4.13104 5.93498 4.15007 5.98197C4.31069 6.37861 4.1869 5.79643 4.18985 5.77999C4.25301 5.49583 4.4901 5.77007 4.62486 5.72121C4.72934 5.68256 4.80276 5.53769 4.90699 5.51562C5.03441 5.48928 5.18456 5.5956 5.2929 5.52664C5.30438 5.51969 5.17301 5.2164 5.1867 5.20731C5.32902 5.11229 5.50124 5.08434 5.737 5.23125C5.76104 5.24614 5.84658 5.52398 5.87702 5.55495C6.0608 5.7388 6.43078 6.20754 6.01855 5.01304C6.10189 5.03278 6.20153 5.04754 6.35605 5.25944C6.455 5.39602 6.53712 5.70349 6.53285 5.55981C6.53202 5.52774 6.41441 5.27701 6.42098 5.24832C6.44861 5.12783 6.5552 5.18141 6.56728 5.02199C6.56948 4.98896 6.47166 4.76125 6.45851 4.71841C6.35346 4.37088 6.6324 4.90206 6.66057 4.93739C6.871 5.20073 6.88689 5.0562 6.97246 5.02908C6.99242 5.02289 6.84157 4.72516 6.85611 4.7082C6.93288 4.62445 7.03911 4.61085 7.19003 4.70742C7.22384 4.72966 7.31518 4.99887 7.33702 5.02285C7.43218 5.1253 7.23303 4.62807 7.32031 4.71673C7.33836 4.73482 7.42825 4.96035 7.44027 4.98421C7.62871 5.35883 7.41848 4.8039 7.41968 4.78917C7.43027 4.59026 7.72555 5.13722 7.77083 5.02244C7.77596 5.00815 7.63345 4.7351 7.65524 4.7122C7.79871 4.55837 8.01823 4.55514 8.29115 4.70387C8.33332 4.72666 8.40653 4.94646 8.41962 4.97178C8.62568 5.36668 8.40494 4.81332 8.40473 4.78893C8.40955 4.61058 8.67671 5.03855 8.43855 4.36848C8.83314 4.46345 8.96319 3.96905 9.51909 4.41486C9.52583 4.41989 9.64009 4.69006 9.65302 4.69893C9.8102 4.80851 9.60515 4.40104 9.43356 3.86679C9.39043 3.73266 9.71426 4.32469 9.7388 4.36771C9.82877 4.52649 9.99421 4.93052 10.0137 4.96032C10.1692 5.19327 9.56464 3.88326 9.61916 3.85789C9.62188 3.8593 9.72486 4.10421 9.74042 4.12613C9.78917 4.19501 9.7596 4.09251 9.81162 4.16925C9.93172 4.34694 10.2346 4.97934 10.1135 4.58606C10.0976 4.5351 9.74764 3.79522 9.81206 3.80823C9.83802 3.81407 9.91778 3.76203 9.96406 3.79912C10.0102 3.83619 10.1039 4.0834 10.1104 4.09299C10.3212 4.37987 10.357 4.52252 10.6058 4.97636C10.854 5.42831 10.3315 4.31834 10.2875 4.18783C10.2436 4.0577 10.4123 4.29674 10.466 4.38215C10.5195 4.46763 10.5753 4.62647 10.6094 4.6731C10.8334 4.97717 10.3841 4.10642 10.3249 3.91927C10.1843 3.47632 10.6081 4.28269 10.6949 4.34069C10.7183 4.35635 10.6202 4.17344 10.6239 4.15037C10.6395 4.06152 10.7875 4.30578 10.7312 4.04486C10.7221 4.00232 10.5344 3.48634 10.7318 3.83717C10.7602 3.88781 10.8449 4.09846 10.8862 4.13525C10.948 4.19054 11.0224 4.21047 11.0222 4.12688C11.022 4.06507 10.8367 3.73933 10.9155 3.83058C10.9506 3.87134 11.0189 4.08072 11.0772 4.14077C11.1354 4.20086 11.1946 4.16248 11.2156 4.14431C11.2364 4.12602 11.1028 3.8757 11.0966 3.85751C11.0619 3.753 11.0499 3.60765 11.0541 3.60603C11.2436 3.47873 11.6369 3.821 11.7684 3.58334C11.7787 3.56511 11.6399 3.30024 11.6402 3.29468C11.6395 3.15633 11.9392 3.8936 12.091 4.11586C11.8247 3.57103 11.8939 3.65967 11.9029 3.58168C11.907 3.54365 11.796 3.33647 11.7873 3.31398C11.6605 2.97933 11.8777 3.38608 11.9232 3.46878C12.0905 3.77302 11.9333 3.39418 12.0454 3.5974C12.1569 3.79902 12.2759 4.12002 12.3104 4.09867C12.2269 3.89798 11.9551 3.39915 11.9429 3.30306C11.8974 2.93936 12.2803 3.24914 12.3842 3.25035C12.4873 3.25191 12.4968 3.20281 12.5796 3.24994C12.729 3.3352 12.5132 2.97207 12.4831 2.77261C12.4529 2.57317 12.8786 3.51764 12.9835 3.71418C13.0883 3.91067 12.9967 3.70052 13.0596 3.80594C13.1225 3.91135 13.168 4.05754 13.2104 4.08797C13.2529 4.11834 13.1414 3.73241 13.0476 3.51921C12.8487 3.06754 12.5949 2.61548 12.7335 2.75029C12.7416 2.75834 12.8497 3.00857 12.8747 3.02697C13.0703 3.16495 13.1838 3.12399 13.3681 3.24023C13.3936 3.25657 13.5141 3.53485 13.5305 3.54743C13.702 3.67921 13.4466 3.23557 13.2439 2.70304C13.5657 3.38618 13.7952 3.78816 13.8631 3.75979C13.904 3.74298 13.7518 3.45034 13.6748 3.22919C13.6516 3.16255 13.7795 3.35197 13.7161 3.21031C13.5458 2.82956 13.3284 2.42641 13.3494 2.38925L13.3253 2.40152C13.3297 2.39337 13.3456 2.40205 13.376 2.4314C13.384 2.43936 13.5043 2.68965 13.5222 2.6992C13.6385 2.76214 13.3978 2.28955 13.4344 2.19725C13.4658 2.12343 13.7101 2.3592 13.7982 2.37113C14.2023 3.11771 14.1693 2.91432 13.9102 2.38877C13.96 2.3888 13.9881 2.3355 14.0646 2.38549C14.0909 2.40239 14.2021 2.62182 14.2166 2.64411C14.4451 2.99371 14.1841 2.48717 14.1816 2.46302C14.1669 2.22239 14.4557 2.55439 14.3289 2.14004C14.3245 2.12503 14.0306 1.61379 14.2709 1.97199C14.2876 1.99663 14.3948 2.2448 14.446 2.2388C14.4965 2.23325 14.7351 2.45899 14.6489 2.19132C14.6287 2.12658 14.4084 1.70013 14.6322 2.0014C14.6626 2.04231 14.748 2.18836 14.8029 2.26499C14.979 2.5086 14.6715 1.99792 14.9609 2.41409C15.2499 2.83043 15.5012 3.12027 15.3711 2.78812C15.3676 2.77827 15.1233 2.37366 15.1445 2.36865C15.1789 2.36084 15.2744 2.41545 15.3019 2.39306C15.315 2.3822 15.1414 2.14554 15.1408 2.13946C15.1387 1.94198 15.3499 2.11315 15.5159 2.1315C15.5479 2.13435 15.354 1.77966 15.5803 2.00422C15.8307 2.24784 16.6759 3.41593 16.5675 3.06364C16.5296 2.91788 15.4049 1.47767 16.0752 2.1501C16.0402 1.87155 16.4805 2.12425 16.363 1.76924C16.3579 1.75333 16.013 1.37715 16.0285 1.37141C16.0526 1.36314 16.2317 1.52082 16.2551 1.51939C16.3573 1.51745 16.2546 1.32911 16.3238 1.30076C16.3499 1.28933 16.5257 1.46222 16.5575 1.44771C16.5894 1.43271 16.3614 1.20095 16.5069 1.27311C16.6176 1.32823 17.1386 1.74004 17.2287 1.75401C16.7345 1.32534 16.7654 1.31021 16.6673 1.15884C16.6482 1.12954 16.4675 0.990596 16.4494 0.969195C16.3719 0.879199 16.5275 0.987314 16.4412 0.891391C16.4205 0.868342 16.2492 0.724903 16.2225 0.698077C15.9886 0.464829 16.4054 0.74931 16.4791 0.797402C16.7571 0.982485 16.5421 0.786281 16.6599 0.848842C16.7777 0.911251 16.8807 1.04402 16.9615 1.07044C17.1289 1.1246 17.1534 1.03572 17.201 0.991529C17.2191 0.972685 16.9732 0.803039 16.9704 0.796071C16.9433 0.707855 17.227 0.859511 16.7737 0.474391C18.0142 1.38094 16.6753 0.35799 16.9639 0.486505C16.9872 0.497023 17.5705 0.930053 17.6413 1.01312C17.7123 1.09575 17.5093 0.98742 17.6214 1.11436C17.6479 1.14401 18.1594 1.59531 18.188 1.62579C18.4126 1.86207 17.5503 1.20252 17.5021 1.16751C16.977 0.794646 17.5219 1.28809 17.5522 1.33144C17.6934 1.52741 17.5371 1.47841 17.631 1.62588C17.6906 1.72242 18.2393 2.17464 18.2024 2.18546C18.0788 2.22266 17.298 1.61011 17.8916 2.23985C18.0176 2.37466 18.6214 2.86461 18.1055 2.52721C18.0724 2.50663 17.6138 2.18216 17.8575 2.44035C17.8881 2.47305 18.0581 2.62275 18.0685 2.63972C18.1346 2.75072 17.9825 2.65019 18.0184 2.73944C18.0545 2.82844 18.1128 2.95566 18.0222 2.94028C17.9675 2.93163 17.6341 2.67009 17.5498 2.60885C17.3078 2.43158 17.6309 2.79958 17.3551 2.56625C17.0797 2.32992 16.7144 1.91665 16.5089 1.79213C16.9276 2.20559 17.3549 2.63246 17.7738 3.05043C17.6533 3.14337 17.4155 3.10832 17.3232 3.22756C17.3119 3.24294 17.539 3.46403 17.5319 3.487C17.4999 3.58376 17.2941 3.46441 17.2848 3.59025C17.2782 3.68879 17.432 3.99638 17.4245 4.11078C16.9662 3.61552 17.0279 3.85809 16.9282 3.85651C16.8941 3.85576 16.7869 3.71136 16.7369 3.67563C16.5515 3.54354 16.9337 4.00058 16.9737 4.08758C17.1403 4.46146 16.3396 3.37859 16.2876 3.45676C16.2851 3.46019 16.6508 4.08084 16.6683 4.12307C16.7902 4.39352 16.5178 3.92348 16.4601 3.899C16.3543 3.85439 16.226 3.7344 16.2856 3.94757C16.3041 4.01012 16.5081 4.41182 16.2855 4.14379C16.2564 4.10868 16.1289 3.90852 16.118 3.8991C15.931 3.74444 16.3341 4.3715 16.432 4.6087C16.5304 4.84548 16.198 4.44641 16.1089 4.32716C15.8764 4.01991 16.0443 4.17414 16.0259 4.1412C15.8056 3.75033 15.8079 3.84002 15.7583 3.82627C15.3678 3.20821 15.3532 3.26881 15.7089 3.81414C15.7478 3.87365 15.7346 3.80166 15.7583 3.82627C16.111 4.4516 16.1088 4.56089 15.7105 4.0185C15.5245 3.76378 15.3558 3.43791 15.3578 3.59299C15.3582 3.66322 15.6279 4.08847 15.6695 4.2234C15.7617 4.53283 15.442 4.17559 15.4124 4.27783C15.4016 4.31494 15.5619 4.54067 15.5594 4.57422C15.5528 4.66411 15.4122 4.50614 15.4199 4.62336C15.4207 4.63431 15.5721 4.88012 15.5598 4.89122C15.4721 4.97888 15.2914 4.86758 15.1829 4.92078C15.1286 4.94772 15.115 5.13576 15.0454 5.13666C14.9567 5.1386 14.7649 4.96404 14.6587 4.93121C14.6483 4.93245 14.6227 4.95384 14.6124 4.9548C14.5778 4.94211 14.553 4.94582 14.5451 4.97845C14.5242 5.06141 14.6624 5.31497 14.7277 5.50189C14.8544 5.86418 14.481 5.28713 14.4248 5.19696C14.423 5.19396 14.4357 5.11201 14.3477 4.99018C14.1987 4.71957 14.4247 5.19552 14.4248 5.19696C14.3883 5.13882 14.2746 5.1216 14.282 5.17935C14.2861 5.2109 14.4113 5.45394 14.4112 5.46575C14.4058 5.74069 14.3198 5.85994 14.1481 5.80128C14.1436 5.7973 14.013 5.52083 14.0042 5.51491C13.8779 5.42519 13.9985 5.78239 14.0401 6.00899C14.0819 6.23539 14.005 6.19001 13.7435 5.73338C13.7303 5.81322 13.5692 5.63329 13.4736 5.52306C13.378 5.41283 13.6316 5.95131 13.6336 5.96338C13.702 6.34842 13.5002 6.06747 13.3787 6.06692C13.3202 6.0659 13.2642 6.18841 13.2414 6.27139C13.2238 6.33789 13.1396 6.22352 13.1411 6.32161C13.1413 6.33474 13.2603 6.57154 13.2632 6.58148C13.3583 6.88736 13.0995 6.29307 13.0413 6.19267C12.8296 5.82747 12.7145 5.63408 12.7472 5.83769C12.7546 5.88438 13.119 6.74395 13.1198 6.80392C13.1203 6.88031 12.988 6.57302 12.9922 6.66066C12.9924 6.66788 13.0813 6.854 13.0586 6.85472C12.9542 6.86049 12.8081 6.79681 12.727 6.8579C12.7155 6.86553 12.8708 7.15404 12.8565 7.16995C12.7891 7.24459 12.6904 7.27762 12.5436 7.17729C12.507 7.15168 12.4224 6.93831 12.3892 6.87877C12.1879 6.51863 12.4035 7.07792 12.402 7.0912C12.3751 7.42099 12.029 6.98524 11.985 7.28958C11.9832 7.30712 12.1882 7.91862 11.9289 7.4328C11.9115 7.40053 11.6476 6.90285 11.7838 7.26354C11.7923 7.28612 11.9316 7.54076 11.888 7.52838C11.8445 7.51603 11.8752 7.71482 11.6995 7.44543C11.644 7.36063 11.3779 6.86543 11.5246 7.29024C11.5352 7.31975 11.8948 8.26748 11.5819 7.64331C11.5305 7.54053 11.2266 6.86755 11.3368 7.2335C11.3582 7.30439 11.4433 7.4466 11.4621 7.55108C11.4916 7.71192 11.3599 7.55463 11.4505 7.87485C11.4667 7.93147 11.6403 8.40313 11.4553 8.06939C11.4263 8.01712 11.3323 7.78907 11.3065 7.77051C11.1833 7.68116 11.1802 7.86368 11.041 7.73945C10.992 7.69587 10.8401 7.32718 10.7709 7.24129C10.7018 7.15533 10.6074 7.08531 10.6556 7.26335C10.7036 7.44155 10.9941 8.00729 10.9745 8.07187C10.8893 8.35235 10.5639 8.08978 10.366 8.11803C10.3367 8.12211 10.4504 8.32029 10.4139 8.34122C10.2822 8.4182 10.1171 8.72362 9.803 8.33371C9.54977 8.02217 9.55652 7.69796 9.41792 7.58668C9.35154 7.53371 9.60665 8.22799 9.60699 8.25318C9.61465 8.50733 9.42493 8.23302 9.38803 8.35824C9.38043 8.3842 9.51451 8.65231 9.50669 8.67138C9.48159 8.73872 9.37823 8.63776 9.34311 8.67941C9.32754 8.69877 9.42133 8.90727 9.39579 8.89902C9.33576 8.88167 9.25878 8.81008 9.13187 8.63129C9.12034 8.61499 9.035 8.34225 8.99847 8.34633C8.93943 8.35378 8.79315 8.18631 8.8163 8.41352C8.82377 8.48166 9.02648 8.96317 8.84687 8.64738C8.80932 8.58144 8.57575 7.99912 8.74124 8.5176C8.76883 8.60373 8.97587 9.30984 8.75607 8.89099C8.69819 8.78077 8.47478 8.3178 8.48456 8.40117C8.48662 8.41427 8.60671 8.66821 8.59943 8.70093C8.57138 8.81195 8.49138 8.81287 8.45952 8.92126C8.45114 8.95075 8.58868 9.20806 8.57256 9.24348C8.52778 9.34152 8.41212 9.30927 8.3045 9.25518C8.26514 9.23451 8.19212 9.00447 8.18025 8.98105C7.988 8.59971 8.18786 9.13887 8.19026 9.1741C8.20266 9.38582 8.05263 9.15543 8.02181 9.24504C8.013 9.2691 8.12731 9.51844 8.13332 9.54237C8.18994 9.77703 8.02968 9.31099 7.9885 9.26915C7.87222 9.15053 7.81307 9.19812 7.76638 9.25457C7.74929 9.27572 7.89234 9.56069 7.87556 9.57628C7.77934 9.67384 7.64414 9.6948 7.46431 9.57723C7.43035 9.55452 7.3546 9.32141 7.32967 9.27116C7.15603 8.91932 7.30556 9.43345 7.31348 9.48489C7.35067 9.71936 7.25313 9.52514 7.22472 9.57948C7.08868 9.84801 6.77777 9.81263 6.54705 9.80333C6.24524 9.79312 5.96761 9.64536 5.72823 9.79169C5.71317 9.8006 5.83522 10.1028 5.82348 10.1145C5.66597 10.2514 5.44278 10.1916 5.27657 10.3428C5.26293 10.3547 5.3789 10.6416 5.35986 10.6705C5.3221 10.7317 5.24833 10.7371 5.16361 10.6599C5.12286 10.6227 5.08136 10.3586 5.04226 10.3262C4.95069 10.2503 4.88201 10.248 4.82983 10.3148C4.80758 10.3439 4.93917 10.6343 4.90288 10.6487C4.66601 10.7502 4.40635 10.8769 4.02001 10.5447C3.99263 10.522 3.83749 9.89948 3.82256 10.0285C3.85666 10.2032 3.90055 10.4079 3.93883 10.5943C3.83872 10.6423 3.70946 10.6728 3.58561 10.6861C3.53925 10.6767 3.39724 10.7289 3.35174 10.716C3.11383 10.7154 2.86885 10.6051 2.62849 10.5984C2.61509 10.5981 2.66495 10.9351 2.6391 10.9362C2.48755 10.9431 2.34496 11.0483 2.16412 10.7226C2.14621 10.6907 2.11201 10.0938 2.07325 10.1872C2.06571 10.2043 2.00406 10.2885 1.9943 10.4192C1.99317 10.4389 2.02494 10.7164 2.00288 10.7261C1.8756 10.7772 1.73372 10.7224 1.59064 10.5599C1.568 10.5331 1.57331 10.2351 1.55721 10.2134C1.44039 10.0621 1.33375 10.2939 1.20986 10.029C1.12702 9.85053 1.13417 9.33612 1.07813 8.83218C1.07055 8.7611 1.02316 8.75119 1.0126 8.45711C0.991257 7.71765 0.986688 6.90748 0.960274 6.11938C0.934118 5.94986 1.00319 6.13224 0.951081 5.72218C0.941591 5.69488 0.951208 5.55843 0.954341 5.41901C0.954778 5.32268 0.93907 5.02384 0.94192 4.90046C0.945187 4.77718 0.963372 5.02749 0.973469 4.88221C0.984167 4.73509 0.961931 4.39539 0.993369 4.3537ZM13.0461 5.03041C12.8907 4.78798 13.3393 5.73383 13.2652 5.49158C13.2611 5.47875 13.0538 5.04227 13.0461 5.03041ZM16.8729 2.53272C16.5185 2.2324 16.9535 2.75463 17.2256 2.98868C17.5001 3.2197 16.9818 2.62238 16.8729 2.53272ZM17.0113 1.9107C16.7048 1.7063 17.7853 2.72424 17.6127 2.46865C17.6031 2.45408 17.0293 1.92238 17.0113 1.9107ZM1.24122 8.68129C1.23975 8.66745 1.21063 8.65524 1.20988 8.66906C1.20903 9.00193 1.27035 9.02598 1.24122 8.68129ZM17.0616 1.2918C16.8958 1.17731 17.0432 1.36268 17.2489 1.50581C17.4149 1.62037 17.2685 1.43349 17.0616 1.2918ZM10.9113 4.80357C10.9042 4.78966 10.8799 4.78545 10.9174 4.86527C11.0382 5.12233 11.0301 5.0377 10.9113 4.80357ZM17.5498 0.635832C17.4328 0.699252 16.4121 0.0159731 16.5971 6.3744e-05C16.6307 -0.00298534 16.881 0.273284 16.9867 0.316662C17.18 0.3945 16.5836 -0.0937269 16.9477 0.107937C17.0146 0.1446 17.5588 0.633641 17.551 0.637024C17.5506 0.636627 17.5502 0.636229 17.5498 0.635832ZM12.4833 3.90583C12.4767 3.89366 12.4458 3.89391 12.4512 3.90657C12.5814 4.21271 12.6437 4.21232 12.4833 3.90583ZM9.56911 4.7064C9.55552 4.68017 9.48468 4.68188 9.49394 4.70751C9.68614 5.21702 9.83067 5.21475 9.56911 4.7064ZM13.8099 2.3905C13.6765 2.08247 13.6875 2.03163 13.9099 2.38846C13.8737 2.38293 13.8461 2.39426 13.8099 2.3905Z" fill="#4D5AEE"/>
<path d="M2.4623 6.28665C2.73899 6.31141 2.87763 6.49667 2.94456 6.6851C2.96518 6.74365 2.85519 6.89497 2.86401 6.94203C2.88196 7.03427 2.97127 6.98001 2.97864 7.08298C2.98052 7.11785 2.8151 7.36186 2.82014 7.39243C2.84223 7.55442 2.96212 7.53766 3.01317 7.6405C3.26587 8.1491 3.56589 8.47193 3.86081 8.82418C3.95947 8.94107 3.95613 9.25847 4.14473 9.24399C4.16707 9.24219 4.30138 9.02172 4.31596 9.00588C4.54068 8.76453 4.23629 9.18747 4.22562 9.26354C4.1843 9.56444 4.29175 9.66538 4.45492 9.65563C4.52466 9.6508 4.76677 9.19596 4.65014 9.46432C4.64232 9.48249 4.47742 9.70164 4.47311 9.73401C4.46354 9.80691 4.54365 9.80215 4.55323 9.83492C4.56879 9.89182 4.57733 9.90031 4.60573 9.92232C4.62942 9.92816 4.68014 9.98715 4.70327 9.99491C4.70659 9.99796 4.71021 10.0013 4.71418 10.0049C4.76021 10.0508 4.73391 10.2048 4.82661 10.2002C4.84692 10.1986 5.00888 9.96836 5.0573 9.94613C5.10569 9.92399 5.13902 9.9818 5.11348 10.0464C5.08793 10.111 4.94163 10.2765 4.91256 10.318C4.6665 10.6683 5.09561 10.2551 5.11206 10.2497C5.40024 10.1632 5.30025 10.5167 5.42275 10.616C5.51608 10.6908 5.68671 10.6872 5.76549 10.772C5.85882 10.874 5.84984 11.0641 5.9689 11.1289C5.98126 11.136 6.17943 10.8714 6.19499 10.8795C6.3603 10.9668 6.47497 11.1092 6.47124 11.3967C6.47067 11.4258 6.26667 11.633 6.25495 11.6753C6.18765 11.9296 5.95233 12.4793 6.81492 11.5557C6.84014 11.6413 6.878 11.7398 6.76523 11.9775C6.69273 12.1306 6.45681 12.3447 6.58435 12.2761C6.61288 12.2609 6.77948 12.0396 6.80879 12.0328C6.93207 12.0044 6.93699 12.1264 7.08628 12.0657C7.11708 12.0528 7.27424 11.8612 7.30639 11.8299C7.56771 11.5777 7.22763 12.0727 7.20954 12.1143C7.07676 12.4263 7.21499 12.3767 7.28086 12.4433C7.29604 12.4588 7.49268 12.1891 7.51508 12.195C7.62819 12.2288 7.69504 12.3237 7.67987 12.5053C7.67591 12.5463 7.47471 12.7472 7.46335 12.7778C7.41541 12.9099 7.7728 12.5109 7.73355 12.6297C7.72571 12.6543 7.56312 12.8346 7.54713 12.856C7.29587 13.1918 7.70143 12.7586 7.71558 12.7535C7.90306 12.6789 7.54295 13.1858 7.66894 13.1788C7.6844 13.1775 7.8668 12.9292 7.898 12.9397C8.10722 13.0086 8.21176 13.2113 8.20158 13.5287C8.2001 13.5776 8.03152 13.7367 8.01427 13.7594C7.74558 14.1147 8.15306 13.6801 8.17547 13.6699C8.34194 13.6011 8.0678 14.0249 8.5766 13.5279C8.66951 13.9373 9.18682 13.8639 9.01237 14.5608C9.01065 14.5692 8.80915 14.7824 8.80655 14.798C8.77295 14.9891 9.06256 14.6367 9.48602 14.2678C9.59249 14.1753 9.1808 14.7102 9.15109 14.7499C9.04176 14.8961 8.73686 15.2086 8.71743 15.2384C8.5663 15.4744 9.52706 14.398 9.5738 14.4396C9.57363 14.4427 9.38956 14.6343 9.37574 14.6574C9.33219 14.7297 9.41486 14.6622 9.36529 14.7406C9.25055 14.9221 8.78988 15.4507 9.10516 15.1858C9.14598 15.1513 9.68755 14.5376 9.70338 14.6041C9.70925 14.6312 9.79204 14.6875 9.77673 14.7453C9.76147 14.8031 9.56987 14.9853 9.56364 14.995C9.38345 15.3026 9.26532 15.3906 8.94444 15.7967C8.62461 16.2012 9.44429 15.2883 9.54774 15.1974C9.65063 15.1064 9.49748 15.3563 9.43973 15.439C9.38208 15.5219 9.25658 15.6342 9.22713 15.684C9.03536 16.0101 9.66403 15.2585 9.81488 15.1326C10.1722 14.8347 9.59217 15.5373 9.57257 15.6404C9.56734 15.6683 9.69864 15.5075 9.72165 15.5024C9.81109 15.4842 9.64143 15.7139 9.86291 15.5641C9.89902 15.5397 10.3073 15.1722 10.0581 15.4886C10.0221 15.5342 9.85855 15.6917 9.84083 15.7445C9.81413 15.8237 9.82528 15.9017 9.90356 15.871C9.96146 15.8483 10.1933 15.5537 10.1391 15.6618C10.1148 15.71 9.94554 15.851 9.91228 15.9281C9.87894 16.0051 9.93762 16.0468 9.96254 16.0597C9.98805 16.073 10.1705 15.8557 10.1852 15.8432C10.2698 15.7726 10.4022 15.7094 10.4054 15.7128C10.6021 15.8498 10.4317 16.3461 10.7049 16.3886C10.7261 16.3922 10.9241 16.1681 10.9294 16.1664C11.0601 16.1182 10.476 16.6589 10.3226 16.8802C10.7376 16.438 10.6802 16.5351 10.7578 16.5174C10.7956 16.5085 10.95 16.3312 10.968 16.3152C11.2378 16.0798 10.9343 16.4271 10.8729 16.4988C10.6473 16.7628 10.9475 16.4833 10.7968 16.6598C10.6472 16.835 10.3876 17.0583 10.4202 17.0837C10.5793 16.9356 10.9511 16.506 11.0376 16.4618C11.3642 16.2935 11.2169 16.7713 11.2517 16.8703C11.2871 16.9698 11.3368 16.9627 11.3221 17.0584C11.2946 17.2306 11.5641 16.9053 11.7448 16.8132C11.9255 16.7212 11.1733 17.4336 11.0227 17.5978C10.8719 17.7616 11.0402 17.606 10.9615 17.7003C10.8827 17.7944 10.7595 17.8854 10.7449 17.9356C10.7303 17.9858 11.0579 17.7536 11.2296 17.5961C11.5925 17.2616 11.936 16.873 11.8566 17.051C11.8517 17.0614 11.6497 17.2444 11.6409 17.2747C11.5785 17.509 11.6527 17.6027 11.6054 17.8195C11.5984 17.8494 11.3716 18.0506 11.365 18.0704C11.2953 18.2763 11.6359 17.8941 12.081 17.5379C11.531 18.0554 11.2207 18.3989 11.2678 18.454C11.296 18.4874 11.5277 18.2527 11.7157 18.1128C11.7724 18.0707 11.6316 18.2509 11.7474 18.1476C12.1265 17.8104 12.5148 17.3953 12.4068 17.6093C12.4014 17.6192 12.1932 17.8031 12.1894 17.8233C12.1628 17.9548 12.5531 17.5956 12.6571 17.612C12.7393 17.6255 12.586 17.9346 12.5973 18.0241C11.9751 18.6015 12.1626 18.5178 12.6121 18.1419C12.6282 18.1946 12.6885 18.2113 12.6604 18.3005C12.6509 18.331 12.4622 18.4889 12.4439 18.5083C12.1567 18.8115 12.5914 18.4433 12.6151 18.4361C12.8497 18.3717 12.5936 18.7327 12.9793 18.5323C12.9932 18.525 13.4399 18.1401 13.1358 18.4463C13.1147 18.4671 12.8901 18.618 12.9074 18.6692C12.9269 18.7228 12.751 19.0023 13.0034 18.877C13.0643 18.847 13.4562 18.5688 13.1952 18.8393C13.1595 18.8758 13.0271 18.9811 12.9596 19.0471C12.7445 19.2572 13.2082 18.8825 12.8369 19.2277C12.4657 19.5731 12.2049 19.8522 12.5159 19.6804C12.525 19.6754 12.9002 19.388 12.9091 19.4106C12.9225 19.4465 12.8775 19.5473 12.9023 19.5735C12.9144 19.586 13.1367 19.3942 13.1427 19.3932C13.3435 19.3814 13.1966 19.6184 13.1788 19.7842C13.1753 19.8152 13.54 19.6358 13.3098 19.8576C13.1208 20.0373 12.4046 20.5269 12.1912 20.712L12.1521 20.6533C12.0766 20.713 12.0611 20.7407 12.148 20.7156C12.2822 20.6718 13.8782 19.7795 13.1059 20.3336C13.3886 20.3518 13.0297 20.7046 13.3952 20.6857C13.4113 20.6848 13.8775 20.4768 13.8793 20.4962C13.8809 20.5248 13.673 20.6422 13.6666 20.6649C13.6343 20.763 13.848 20.7391 13.8495 20.8198C13.8503 20.8499 13.6212 20.9413 13.6215 20.9761C13.6218 21.0104 13.9285 20.9019 13.8019 21.0045C13.7053 21.0828 13.1058 21.3681 13.0494 21.4342C13.655 21.1867 13.6537 21.2188 13.834 21.2043C13.869 21.2014 14.0761 21.1063 14.1036 21.1006C14.2202 21.0759 14.0518 21.1634 14.1778 21.1344C14.208 21.1275 14.4159 21.0456 14.4524 21.0354C14.771 20.9463 14.3232 21.1815 14.2446 21.2209C13.9474 21.3736 14.2244 21.2846 14.1118 21.3565C13.9991 21.4281 13.8321 21.4492 13.7688 21.5063C13.6379 21.6241 13.7002 21.6876 13.7131 21.7519C13.7196 21.7771 13.9931 21.657 14.0005 21.6582C14.0903 21.6829 13.8114 21.8435 14.3793 21.6666C12.95 22.2306 14.5305 21.6463 14.2682 21.8243C14.247 21.8386 13.5674 22.0953 13.4593 22.1102C13.3513 22.1251 13.5524 22.0139 13.3853 22.041C13.346 22.0473 12.6923 22.2417 12.6516 22.2505C12.3335 22.3191 13.3497 21.9377 13.4048 21.9146C13.9984 21.6649 13.2926 21.8705 13.2403 21.8753C13.0008 21.8977 13.1254 21.7951 12.9521 21.8059C12.8401 21.8128 12.1752 22.0648 12.1867 22.0341C12.2255 21.9351 13.1355 21.5388 12.3093 21.7896C12.1333 21.8436 11.4196 22.1514 11.965 21.871C11.9997 21.854 12.4999 21.6006 12.1648 21.7163C12.1227 21.7311 11.9141 21.8195 11.8952 21.8236C11.7726 21.8498 11.9321 21.7638 11.8425 21.7746C11.7529 21.7855 11.6236 21.8117 11.6822 21.7551C11.7174 21.7214 12.0912 21.5243 12.1809 21.4723C12.4395 21.3228 11.9874 21.5082 12.3057 21.3386C12.6244 21.1657 13.1356 20.9591 13.3244 20.8122C12.7947 21.0686 12.2504 21.3304 11.718 21.5887C11.7022 21.5092 11.8336 21.3497 11.7691 21.2869C11.7607 21.2796 11.4892 21.4423 11.4733 21.4389C11.408 21.4249 11.5834 21.2775 11.4805 21.2797C11.3999 21.2822 11.0917 21.4199 10.9998 21.4316C11.2507 21.2647 11.3435 21.1852 11.3717 21.1418L11.4394 21.2434C11.474 21.1918 11.4139 21.2018 11.4278 21.1631C11.4362 21.1386 11.5818 21.0331 11.6224 20.9892C11.7711 20.8254 11.3052 21.1961 11.2234 21.243C10.8761 21.4459 11.9499 20.6328 11.8823 20.5995C11.8787 20.5969 11.2861 21.0042 11.248 21.0281C10.9969 21.1802 11.4413 20.8696 11.4689 20.8189C11.5206 20.7279 11.6362 20.5978 11.4412 20.6909C11.3833 20.7183 11.015 20.9745 11.2649 20.7334C11.2976 20.7017 11.4824 20.553 11.4912 20.5418C11.6356 20.3526 11.0595 20.826 10.8467 20.965C10.6342 21.1043 10.9985 20.7378 11.1049 20.6339C11.381 20.3661 11.2434 20.5437 11.273 20.5205C11.627 20.245 11.5443 20.2665 11.5544 20.22C12.1094 19.7441 12.0489 19.7406 11.5628 20.1738C11.5095 20.2208 11.5761 20.1939 11.5544 20.22C10.9897 20.6631 10.8972 20.6961 11.3741 20.2226C11.5974 20.0006 11.8891 19.7778 11.7412 19.8117C11.6742 19.8268 11.3027 20.1668 11.181 20.2361C10.9037 20.3945 11.2049 20.0262 11.1046 20.0251C11.0686 20.0251 10.8788 20.2262 10.8472 20.2327C10.763 20.2507 10.8908 20.0837 10.7842 20.1238C10.7743 20.1277 10.5668 20.3282 10.5554 20.3211C10.4653 20.2717 10.5381 20.0779 10.4716 19.9989C10.4387 19.9599 10.2594 20.0013 10.2451 19.9397C10.2219 19.8367 10.4457 19.4637 10.3146 19.4745C10.2302 19.4809 10.0315 19.6905 9.87464 19.811C9.57173 20.0458 10.0089 19.5164 10.0769 19.4348C10.0792 19.4321 10.1596 19.4172 10.2489 19.2966C10.4602 19.0713 10.0782 19.4342 10.0769 19.4348C10.1213 19.3824 10.1041 19.2711 10.0517 19.2964C10.0232 19.3104 9.8319 19.5057 9.82075 19.5094C9.56154 19.5945 9.42961 19.5599 9.43136 19.3808C9.43371 19.3754 9.65237 19.1617 9.65519 19.1515C9.7014 19.0054 9.40471 19.2378 9.20675 19.3542C9.00874 19.4704 9.02815 19.385 9.37146 18.9864C9.2923 19.0011 9.41094 18.7924 9.48275 18.6656C9.55482 18.5391 9.13466 18.9606 9.12415 18.9668C8.78908 19.1658 8.98312 18.8793 8.94548 18.7689C8.92817 18.7156 8.7967 18.7087 8.71217 18.7177C8.64473 18.7256 8.72243 18.6068 8.63171 18.6434C8.61955 18.6483 8.44018 18.8434 8.43193 18.8496C8.18131 19.0486 8.64437 18.5951 8.71785 18.5053C8.98506 18.1786 9.12486 18.0023 8.94702 18.1062C8.90612 18.1298 8.23523 18.779 8.18058 18.8023C8.11055 18.8312 8.34933 18.5969 8.26999 18.6332C8.26341 18.6361 8.12182 18.7861 8.11356 18.7657C8.07251 18.6723 8.0831 18.5172 7.99849 18.466C7.98751 18.4585 7.77569 18.7084 7.75618 18.7015C7.6651 18.6691 7.60042 18.592 7.64259 18.422C7.65345 18.3791 7.81937 18.2206 7.86236 18.1677C8.12203 17.8472 7.68481 18.2571 7.67224 18.261C7.36003 18.3631 7.63689 17.8821 7.34269 17.9616C7.3258 17.9667 6.84225 18.3929 7.19116 17.967C7.21438 17.9386 7.57176 17.5032 7.29215 17.7686C7.27468 17.7853 7.09319 18.0117 7.0887 17.9676C7.0837 17.9231 6.91537 18.0312 7.09647 17.7658C7.15356 17.6822 7.50631 17.2446 7.17361 17.5466C7.15039 17.5676 6.42174 18.272 6.87337 17.7396C6.94774 17.652 7.44695 17.1079 7.15442 17.3537C7.09785 17.4015 7.00043 17.5355 6.91221 17.5943C6.77652 17.6852 6.86993 17.5031 6.61416 17.7153C6.56888 17.7529 6.20685 18.1012 6.44046 17.7997C6.47703 17.7524 6.64844 17.575 6.65567 17.5444C6.69073 17.3979 6.52408 17.4697 6.5829 17.2934C6.60337 17.2312 6.87945 16.9435 6.93022 16.8456C6.98072 16.7475 7.00844 16.6345 6.86585 16.7513C6.72324 16.8682 6.32302 17.3623 6.25763 17.3721C5.9738 17.4145 6.08291 17.0131 5.98094 16.8503C5.96573 16.826 5.83238 17.0115 5.7992 16.9879C5.67517 16.9009 5.34313 16.8931 5.56248 16.4436C5.73798 16.0834 6.03106 15.9483 6.07401 15.7769C6.094 15.6947 5.57713 16.2237 5.55488 16.2352C5.33209 16.3543 5.49937 16.0663 5.37189 16.0886C5.34552 16.0933 5.16192 16.3302 5.14166 16.3317C5.07076 16.339 5.11927 16.2043 5.06773 16.192C5.04416 16.187 4.89761 16.3625 4.8945 16.3365C4.88507 16.276 4.91752 16.1771 5.02342 15.9855C5.03306 15.9681 5.23966 15.7707 5.22073 15.7405C5.18959 15.6921 5.2752 15.4869 5.0844 15.6107C5.02719 15.6481 4.68632 16.044 4.89041 15.7437C4.933 15.681 5.3498 15.212 4.96069 15.5924C4.89596 15.6555 4.35929 16.1584 4.63656 15.7755C4.70947 15.6746 5.02325 15.2675 4.95352 15.314C4.94282 15.3218 4.76983 15.5431 4.73777 15.5517C4.62796 15.5783 4.59449 15.5104 4.48543 15.5329C4.45596 15.5394 4.28834 15.7781 4.25046 15.7807C4.14624 15.7883 4.12216 15.6708 4.12608 15.5549C4.1277 15.5117 4.29739 15.3402 4.31284 15.3189C4.56424 14.9739 4.1784 15.4002 4.14882 15.4191C3.9697 15.5303 4.10635 15.2923 4.01434 15.3081C3.98943 15.3119 3.82156 15.5288 3.80328 15.5453C3.62315 15.7057 3.96013 15.3462 3.97857 15.2907C4.03138 15.1343 3.96469 15.1069 3.89559 15.0945C3.86991 15.0902 3.68454 15.3495 3.66389 15.3429C3.53782 15.3083 3.46256 15.2055 3.48519 14.996C3.48982 14.9561 3.65747 14.7774 3.6898 14.7316C3.9163 14.4113 3.53835 14.7904 3.49763 14.8226C3.31198 14.9697 3.43632 14.7917 3.37771 14.7954C3.08922 14.8165 2.98167 14.5411 2.88638 14.3476C2.75996 14.0954 2.75415 13.7894 2.52478 13.6799C2.5104 13.6727 2.31663 13.9347 2.30161 13.9318C2.11727 13.8825 2.06612 13.6768 1.87119 13.6397C1.85558 13.6362 1.67717 13.8888 1.64562 13.8913C1.61236 13.8947 1.58679 13.8836 1.57277 13.8582L1.80351 14.0299C1.78769 14.0061 1.78215 13.9675 1.79049 13.9139C1.79835 13.8619 1.97262 13.6602 1.97744 13.6122C1.98877 13.4999 1.95532 13.4506 1.88219 13.4608C1.85042 13.4656 1.70303 13.7469 1.67563 13.7327C1.48874 13.6441 1.29266 13.5781 1.34945 13.1258C1.35301 13.0945 1.69592 12.5523 1.60269 12.6381C1.50277 12.7855 1.3876 12.9603 1.28202 13.1186C0.98026 13.0424 0.861986 12.7011 0.640018 12.5217C0.630869 12.5144 0.467764 12.8132 0.449355 12.8006C0.339823 12.7263 0.187842 12.7436 0.253357 12.3893C0.259388 12.3544 0.570771 11.844 0.49186 11.9023C0.477775 11.9131 0.388805 11.9532 0.310903 12.058C0.299422 12.074 0.166896 12.3198 0.147987 12.3181C0.0407657 12.3046 -0.0112462 12.202 0.0020402 12.0158C0.00472843 11.9854 0.156157 11.7294 0.158967 11.7053C0.173105 11.5337 0.0145407 11.7085 0.140215 11.4696C0.231031 11.3107 0.4222 10.8336 0.603124 10.3614C0.622517 10.293 0.661565 10.2936 0.745898 10.0111C0.909653 9.28916 1.1796 8.52319 1.36408 7.75609C1.37715 7.67275 1.3095 7.65156 1.14559 7.59921C1.05426 7.57066 0.90499 7.54429 0.879742 7.50213C0.84368 7.45957 1.00913 7.38887 1.20086 7.31536C1.22718 7.30401 1.40235 7.29599 1.49171 7.26548C1.58857 7.23513 1.66975 7.19034 1.70967 7.13031C1.77035 7.04941 1.81185 6.7471 1.9169 6.65323C2.02796 6.56208 1.98907 6.81587 2.10565 6.70714C2.22329 6.59745 2.33359 6.27376 2.4623 6.28665ZM9.80178 18.0974C9.97582 17.8679 9.24209 18.6146 9.44384 18.4615C9.45446 18.4532 9.79329 18.1087 9.80178 18.0974ZM12.5295 20.978C12.9173 20.724 12.3075 21.024 12.0066 21.2172C11.7043 21.407 12.4112 21.0536 12.5295 20.978ZM13.0161 21.2075C13.3274 21.0119 11.9732 21.6201 12.2653 21.5379C12.2818 21.5333 12.998 21.2187 13.0161 21.2075ZM0.722801 10.2573C0.728696 10.2447 0.715355 10.2235 0.709339 10.2359C0.561839 10.534 0.581353 10.5728 0.722801 10.2573ZM13.5278 21.4853C13.709 21.3971 13.4755 21.4365 13.2505 21.5468C13.0694 21.635 13.3022 21.5944 13.5278 21.4853ZM9.22759 16.0174C9.23775 16.0055 9.23207 15.9812 9.17267 16.0464C8.98141 16.2563 9.05673 16.2167 9.22759 16.0174ZM13.8259 22.2395C13.8366 22.1061 14.9636 21.6173 14.8785 21.7877C14.8632 21.8186 14.4937 21.8739 14.4002 21.9403C14.2303 22.062 14.9656 21.8309 14.5979 22.0266C14.5306 22.0623 13.8227 22.2479 13.8243 22.2399C13.8248 22.2397 13.8254 22.2396 13.8259 22.2395ZM10.6643 17.1823C10.6735 17.1718 10.6618 17.1422 10.6517 17.1515C10.4088 17.3788 10.4319 17.4385 10.6643 17.1823ZM8.76333 14.722C8.78185 14.699 8.75068 14.6341 8.73092 14.6529C8.34301 15.0351 8.40437 15.167 8.76333 14.722ZM12.5815 18.0403C12.8481 17.8361 12.9032 17.8376 12.6124 18.1415C12.6069 18.1028 12.5882 18.0778 12.5815 18.0403Z" fill="#4D5AEE"/>
</svg>
