<svg width="301" height="8" viewBox="0 0 301 8" fill="none" xmlns="http://www.w3.org/2000/svg">
<path d="M2.83322 0.0479944C4.5193 -0.0641849 6.70167 0.0367882 8.38196 0.181665C8.91651 0.226534 8.66559 0.439774 9.01557 0.480383C9.68567 0.559607 10.4092 0.452137 11.0713 0.547161C11.3021 0.579635 11.016 0.916876 11.259 0.943234C12.6203 1.08511 13.8722 0.993534 15.2047 1.0585C21.873 1.37858 28.404 1.47306 35.134 1.5935C37.3662 1.63286 40.0908 1.92447 42.3435 1.78025C42.6123 1.76309 42.4506 1.46907 42.5016 1.44452C43.3059 1.06865 43.041 1.66508 43.5731 1.74158C45.2116 1.97757 46.903 2.03929 48.6125 1.99565C49.0587 1.9836 49.5 1.96332 49.9304 1.93635C50.7702 1.88301 49.9231 1.30156 50.7745 1.6261C50.8338 1.64802 50.6205 1.96212 50.8529 1.99438C51.3787 2.06693 52.392 2.00606 52.8119 2.02883C53.6284 2.07426 53.7209 2.07066 54.4629 2.07063C55.4673 2.07337 56.6838 2.2231 57.8006 2.14676C58.039 2.12954 57.7214 1.81015 58.102 1.7537C58.4725 1.69738 59.4359 1.71994 59.768 1.79398C60.0978 1.86808 59.9588 2.12099 60.0174 2.17852C60.4985 2.66419 61.6394 1.98281 61.7885 1.96538C64.5068 1.66746 66.7328 2.04176 69.2783 2.02844C71.146 2.01782 73.2262 1.88075 75.0302 1.88957C77.154 1.90144 79.0371 2.06638 81.1154 2.02662C81.3347 2.02279 81.0759 1.64669 81.3438 1.64126C84.1967 1.58382 87.0758 1.61136 89.9255 1.85271C90.2134 1.87724 89.844 2.21027 90.1318 2.25458C91.9127 2.51848 94.6607 3.15968 95.7023 1.71242C96.8862 1.76322 98.3647 1.81455 99.4085 2.10048C100.091 2.28445 99.4301 2.64842 100.267 2.49055C100.456 2.45536 100.209 2.14044 100.492 2.11157C101.686 1.99034 103 2.08703 104.193 1.91823C104.436 1.88316 104.368 1.60026 104.437 1.54895C105.021 1.13324 105.965 1.81166 106.175 1.86031C107.757 2.22301 108.917 2.07212 110.403 2.07439C110.748 2.07508 110.339 1.69653 110.671 1.68352C112.394 1.62116 114.147 1.64592 115.833 1.80712C116.207 1.84389 115.864 2.16948 116.043 2.20363C116.832 2.35028 117.005 1.73747 117.763 1.8663C117.923 1.89268 117.834 2.17048 117.863 2.20082C118.323 2.677 118.708 1.99763 118.826 1.98214C120.296 1.77113 121.242 2.47433 122.67 2.36781C122.841 2.35435 122.454 2.00507 122.935 1.9887C126.141 1.87754 129.509 1.95914 132.678 2.22609C133.17 2.26713 132.82 2.53233 132.851 2.5647C133.357 3.07037 133.68 2.38847 133.84 2.36215C135.104 2.17219 136.289 2.73774 137.146 1.92353C142.505 2.18173 147.839 1.70405 153.157 2.40825C153.224 2.41638 153.105 2.75202 153.239 2.7668C154.864 2.94829 154.55 2.42871 155.622 1.78729C155.892 1.62622 156.717 2.39196 156.79 2.44804C157.056 2.65471 156.783 3.15443 156.872 3.1943C157.608 3.50724 157.482 1.85884 158.472 1.85429C158.503 1.85692 158.374 2.16094 158.458 2.19078C158.716 2.28447 158.972 2.16284 159.226 2.26628C159.808 2.50568 160.018 3.30606 160.901 2.8362C161.013 2.77523 160.838 1.8406 161.724 1.88123C162.078 1.89821 163.639 1.87595 164.077 1.93483C164.513 1.99364 164.215 2.29623 164.246 2.30916C165.424 2.70305 164.978 2.87 165.569 3.45773C166.164 4.04323 165.994 2.64184 166.235 2.4844C166.476 2.3274 167.344 2.65283 167.557 2.76631C167.77 2.87985 167.505 3.07241 167.695 3.13638C168.949 3.55431 168.242 2.43831 168.653 2.21417C169.623 1.68348 170.384 2.7203 171.271 2.81875C171.511 2.84534 171.315 2.60929 171.528 2.58632C172.372 2.49849 172.89 2.82093 173.857 2.51976C174.015 2.47068 174.796 1.84256 175.303 2.29941C175.375 2.36529 175.172 2.62517 175.535 2.68184C176.076 2.76689 177.049 2.81985 177.627 2.73107C178.055 2.66539 177.563 2.24028 178.102 2.37089C178.341 2.42922 177.899 2.68064 178.348 2.76939C178.791 2.85813 179.947 2.84285 180.384 2.83261C180.821 2.82218 180.58 2.49921 180.616 2.47726C180.829 2.35148 181.666 2.19223 181.74 2.19235C185.45 2.13917 188.918 2.67269 192.524 2.47955C192.81 2.46485 192.618 2.124 192.662 2.11823C193.643 1.97177 192.872 2.88243 193.558 3.184C193.457 2.49131 193.862 2.6154 194.55 2.53705C194.881 2.49874 194.7 2.23101 194.73 2.20343C195.22 1.79418 195.563 2.31947 195.651 2.42687C195.977 2.82194 196.328 2.35266 196.549 2.61672C196.77 2.8788 196.265 3.27012 196.92 3.26294C197.103 3.01424 196.615 2.36756 197.112 2.26083C198.972 1.85713 202.544 2.3542 204.032 2.40238C205.533 2.45044 206.047 2.40309 206.927 2.49003C208.524 2.64725 207.938 2.16804 208.923 1.94489C209.909 1.72179 209.432 2.90672 209.575 3.16071C209.715 3.4146 209.865 3.15237 210.038 3.29165C210.21 3.43091 209.839 3.605 210.243 3.65628C210.638 3.70753 211.774 3.25177 211.917 2.98534C212.224 2.42085 211.716 1.83081 212.804 2.0355C212.867 2.04765 212.665 2.35943 212.904 2.39019C214.811 2.62427 216.723 2.6338 218.649 2.84055C218.91 2.86948 218.678 3.21629 218.829 3.23705C220.408 3.45431 219.841 2.87208 220.699 2.2214C220.508 3.08485 220.987 3.61154 222.165 3.61366C222.872 3.61525 222.761 3.23864 223.228 2.97185C223.369 2.89142 223.884 3.14895 223.976 2.97148C224.28 2.39135 223.799 1.7439 225.036 1.9992C225.09 2.01134 224.918 2.3289 225.105 2.34766C226.311 2.47053 226.454 1.86415 227.739 1.78785C228.762 1.72794 230.615 2.0935 231.763 2.15129C231.741 3.12153 232.828 2.89719 233.262 2.22742C234.026 2.25333 234.861 2.21396 235.592 2.30511C235.844 2.33619 235.679 2.61738 235.71 2.64767C236.198 3.12293 236.523 2.47157 236.685 2.44578C238.407 2.19482 239.912 2.68577 241.581 2.20149C241.641 2.18405 241.737 1.50998 242.182 2.00149C242.211 2.03537 241.663 2.34269 242.444 2.36541C242.684 2.3724 242.987 2.41103 243.321 2.45223C244.123 2.54537 245.09 2.6517 245.851 2.43445C246.117 2.35902 246.785 1.81134 247.314 2.2384C247.384 2.29639 247.308 2.48973 247.409 2.59721C247.738 2.93968 247.912 2.25838 248.323 2.83681C248.729 3.41521 249.571 3.84806 250.672 3.44839C250.707 3.43677 250.968 2.89678 251.311 2.90522C251.849 2.91914 252.648 3.03148 253.245 3.02795C253.528 3.02606 253.347 2.69081 253.396 2.68468C255.285 2.49685 256.591 2.79611 258.616 2.92734C258.991 2.95206 259.991 2.49579 260.746 2.85813C261.536 3.25478 260.738 4.89948 262.526 4.50993C263.221 4.35416 264.18 2.26762 265.479 3.35227C267.968 3.08965 270.375 3.65063 272.858 3.2787C272.977 3.26225 273.351 2.68115 273.622 2.69035C274.025 2.70515 274.24 2.97859 274.521 2.99795C275.649 3.08567 276.835 2.85949 277.933 2.9031C278.383 2.91931 278.226 3.19985 278.752 3.21932C279.28 3.23862 279.595 2.87006 280.311 3.05496C280.858 3.19597 281.386 3.95856 282.062 4.05331C282.09 3.30587 282.612 3.32601 283.46 3.13766C283.623 3.10111 283.452 2.83902 283.529 2.8083C283.838 2.6775 284.129 2.89645 284.446 2.75414C284.521 2.71995 284.528 2.46466 284.59 2.42231C285.12 2.05241 285.915 2.63727 286.082 2.73965C286.645 3.12722 286.9 2.79889 287.308 2.95471C287.749 3.11113 287.086 3.28774 287.599 3.38655C288.629 3.59048 289.935 3.57348 290.988 3.61009C291.388 3.62266 291.123 3.27545 291.181 3.26934C292.073 3.20403 292.911 3.5915 293.412 2.92881C293.958 4.70435 293.941 2.77344 295.162 3.17648C295.258 3.20922 295.347 4.04392 294.965 4.14931C294.595 4.25518 294.033 3.97385 293.521 4.14693C293.383 4.18663 292.682 4.94314 292.58 4.98757C291.806 5.33381 291.762 4.09264 291.716 4.02311C291.262 3.27556 290.424 4.09496 290.177 4.14783C289.155 4.39167 288.289 4.2022 287.401 4.3777C286.837 4.49144 286.785 5.30346 286.338 5.27223C284.866 5.16984 284.333 4.03024 282.971 4.99884C282.671 5.2055 282.954 6.09625 281.886 5.38765C281.824 5.343 281.056 4.69706 280.581 5.0973C280.522 5.14776 280.522 5.40661 280.444 5.42771C279.903 5.56393 279.61 5.35543 279.053 5.45007C278.51 5.54482 277.791 5.68715 277.197 5.59562C276.825 5.54077 276.337 5.0556 276.152 4.93647C275.626 4.59329 275.068 5.14799 274.764 4.73456C274.45 4.319 275.074 3.69349 274.241 3.42185C274.207 4.09418 274.132 4.78407 274.078 5.46013C272.189 5.42728 270.367 5.20306 268.559 5.22737C268.33 5.23104 268.563 5.59327 268.317 5.60654C267.262 5.66091 266.356 5.40093 265.291 5.50128C264.464 5.58034 263.491 5.96135 262.66 6.05652C262.143 5.28616 260.832 5.54561 259.871 5.47436C259.551 5.44974 259.573 5.24424 259.344 5.17698C258.475 4.92823 258.881 5.60862 258.641 5.71544C257.604 6.1714 257.518 4.63213 256.257 4.66959C256.191 4.67105 255.419 5.49125 255.31 5.54232C254.624 5.87533 255.197 5.25672 254.767 5.19602C253.977 5.0851 253.422 4.88914 252.465 5.12957C252.168 5.20079 251.559 5.71229 251.032 5.31692C250.964 5.26514 251.002 4.99394 250.946 4.97808C249.944 4.71371 249.914 5.56587 249.332 5.85476C248.754 6.14358 247.812 5.55599 247.656 5.38657C247.195 4.94833 248 5.19889 248.043 5.15583C248.35 4.64344 247.689 4.73206 247.21 4.68916C247.139 3.85369 246.454 3.90441 246.703 4.64806C246.731 4.72928 247.112 4.65106 247.21 4.68916C246.783 5.50924 246.029 5.61484 245.178 4.84964C244.778 4.49102 245.161 4.07196 243.936 4.22644C243.491 4.28212 243.538 4.65985 243.324 4.89003C243.273 4.94818 243.206 4.99691 243.111 5.02865C242.041 5.38778 240.617 4.85305 239.464 4.93935C239.046 4.97068 239.454 5.28497 239.168 5.31724C238.39 5.40389 237.771 5.1686 237.024 5.2909C236.957 5.30238 237.122 5.63175 236.891 5.63634C235.15 5.67758 233.532 5.46947 231.739 5.46726C230.857 5.46635 229.255 5.65157 228.312 5.61713C226.726 5.55923 224.774 5.08449 223.384 5.20437C222.483 5.28114 222.671 5.6104 222.298 5.83598C221.574 6.27325 220.275 5.4966 220.099 5.37628C220.094 5.3723 220.857 5.29259 220.449 5.12439C220.211 4.77235 220.107 5.37473 220.099 5.37628C219.985 5.29854 218.449 5.22775 218.14 5.29162C217.973 5.32652 218.068 5.63865 217.981 5.65094C215.895 5.93612 213.908 6.0211 211.796 5.8812C211.76 5.875 211.814 5.52541 211.727 5.51519C210.497 5.36343 209.762 5.79308 208.769 6.04986C207.782 6.30651 206.992 6.22397 206.399 5.62594C205.648 5.70379 204.553 5.44202 203.949 5.28301C203.335 5.12404 203.251 5.8045 203.197 5.81812C201.511 6.25388 200.527 5.86774 198.751 5.81301C197.911 5.7858 196.27 5.88995 195.361 5.96741C194.645 6.02976 194.212 5.87183 193.549 5.97603C193.46 5.98995 193.551 6.29249 193.524 6.30424C192.785 6.66913 193.138 5.92754 192.985 5.79584C192.428 5.31691 192.081 5.062 191.148 5.29146C190.932 5.34401 190.305 6.41224 189.91 6.47597C189.396 6.55688 189.589 6.17409 189.05 6.26855C189.004 6.27628 189.014 6.51198 188.681 6.50276C187.135 6.46308 185.429 6.33203 183.837 6.36145C183.619 6.36457 183.901 6.73745 183.584 6.74811C182.101 6.79784 180.466 6.79003 179.006 6.62046C178.651 6.57753 178.872 6.3149 178.795 6.23746C178.32 5.76888 177.651 6.45479 177.54 6.46823C174.899 6.80657 172.837 6.19597 170.149 6.50085C170.002 6.5187 168.872 7.25571 168.364 6.62938C168.329 6.58772 167.826 5.94685 167.384 6.3881C167.357 6.41571 167.67 6.74542 167.125 6.71383C166.581 6.68231 165.699 6.90678 164.954 6.54612C164.717 6.43251 164.156 5.79348 163.453 6.30745C163.407 6.34332 162.322 7.50346 161.929 6.70758C161.865 6.57657 161.928 5.73242 161.086 6.16848C160.926 6.253 161.219 6.44006 160.795 6.5593C160.145 6.74306 159.279 6.52053 158.482 6.89969C158.343 6.9668 157.753 7.54198 157.276 7.10918C157.201 7.04139 157.342 6.75909 157.09 6.72858C155.895 6.58221 154.645 6.77578 153.429 6.58586C152.999 6.51914 153.217 6.06279 152.768 5.94259C152.319 5.82243 151.415 5.7088 150.948 5.91887C150.48 6.12904 150.995 6.85278 150.293 6.91379C147.24 7.17875 144.211 6.7657 141.16 6.71642C140.708 6.70904 141.084 6.96718 140.418 6.97496C137.967 7.00473 133.711 7.26668 131.586 6.72405C129.87 6.28948 132.025 5.94352 130.715 5.76935C130.083 5.6863 129.404 6.5332 129.252 6.56043C127.765 6.83684 126.732 6.46756 125.4 6.58815C125.124 6.61317 125.396 6.95401 125.162 6.97153C124.361 7.03439 123.51 6.88549 122.742 6.91684C122.397 6.93168 122.462 7.19264 122.145 7.17389C121.386 7.13203 120.716 7.02521 119.978 6.78366C119.911 6.76165 120.362 6.43465 119.803 6.42506C118.898 6.41047 117.774 6.17396 116.725 6.42813C116.414 6.50457 116.404 7.10168 115.736 6.69236C115.595 6.60687 115.77 5.88913 114.997 6.51209C114.867 6.61562 113.568 7.45705 112.929 6.92135C112.761 6.78036 112.329 6.19564 111.959 6.28952C111.909 6.30446 112.112 6.62424 111.805 6.65692C110.717 6.76653 109.566 6.73755 108.45 6.8431C108.152 6.87192 108.598 7.20175 108.153 7.23411C106.926 7.3236 105.425 7.24597 104.213 7.14767C103.769 7.11079 104.074 6.83448 104.042 6.80471C103.52 6.3205 103.217 6.9787 103.046 7.01779C101.978 7.25204 101.166 6.94726 100.189 7.03342C99.9197 7.05637 100.112 7.36865 100.059 7.39682C99.5037 7.67224 99.9154 7.10791 99.5633 7.04755C98.587 6.87653 97.4585 6.90694 96.4551 6.95163C96.0856 6.96851 96.5026 7.3297 96.1711 7.34065C94.2056 7.41237 92.2065 7.38697 90.2687 7.19587C89.9076 7.15921 90.1334 6.87853 90.0578 6.81502C89.5371 6.37064 88.7837 6.98365 88.6104 7.04252C87.822 7.31132 87.5153 7.06549 86.8226 7.11491C83.3826 7.36091 79.1796 7.21708 75.9504 7.13132C71.7479 7.02115 68.4782 6.77084 64.4773 6.85919C64.2258 6.86444 64.4811 7.23519 64.2645 7.2445C61.401 7.34797 58.6849 7.21574 55.7817 7.33724C55.5486 7.34653 55.8861 7.69754 55.5125 7.72429C54.7413 7.78167 53.8053 7.76703 53.021 7.65823C52.6329 7.60586 53.1514 7.30075 52.7611 7.25422C51.8533 7.14517 50.8965 7.12469 49.9965 7.18559C49.6139 7.21227 50.1927 7.57012 49.6959 7.57669C49.3407 7.58218 48.9887 7.58794 48.6397 7.59333C45.5074 7.63999 42.5186 7.66029 39.4252 7.25733C39.1825 7.22643 38.9655 6.49447 38.4577 6.6375C38.4204 6.84111 38.4236 7.08039 38.408 7.2979C33.4169 7.43921 28.4496 7.20915 23.4799 7.19388C23.2723 7.19331 23.6438 7.5799 23.2237 7.58087C20.8228 7.58673 18.5496 7.70531 16.1358 7.33092C15.9036 7.29429 16.0088 6.61051 15.2899 6.71732C15.1526 6.73684 14.1216 6.83293 13.8391 6.98262C13.8005 7.00517 14.0033 7.32312 13.6475 7.33413C11.6827 7.39203 9.54681 7.3295 7.57411 7.14409C7.24154 7.11363 7.59562 6.77231 7.35633 6.74767C5.72398 6.57521 3.97054 6.84177 2.40462 6.54079C1.36783 6.33803 1.74114 5.74921 1.19802 5.17385C1.11082 5.09273 0.469452 5.08271 0.444264 4.74658C0.359103 3.9015 0.654188 2.97445 0.52472 2.07385C0.491967 1.88015 -0.330436 2.09173 0.150562 1.62131C0.194236 1.58982 0.794914 1.43149 0.957983 1.2716C1.06016 1.16112 0.870033 0.820057 1.08487 0.678243C1.2037 0.607349 1.3077 0.643351 1.44021 0.676124C1.5798 0.708863 1.72588 0.738474 1.90374 0.654911C2.28972 0.485592 2.08793 0.0975573 2.83322 0.0479944ZM201.173 4.57266C200.598 4.24787 200.518 5.44452 201.137 5.15627C201.167 5.14092 201.203 4.58859 201.173 4.57266ZM270.416 4.30128C269.628 3.77082 269.172 4.54534 269.673 4.9545C270.188 5.3633 270.653 4.46209 270.416 4.30128ZM278.171 3.95502C277.283 3.533 277.147 5.22869 278.087 4.89196C278.143 4.87296 278.223 3.97953 278.171 3.95502ZM3.75112 4.9973C3.74483 4.98144 3.29083 4.96811 3.27151 4.98395C3.14513 5.17453 3.32172 5.27637 3.50471 5.28129C3.66835 5.2863 3.84925 5.19436 3.75112 4.9973ZM285.864 3.60982C285.585 3.37648 284.825 3.63198 285.151 3.92144C285.409 4.15413 286.206 3.8999 285.864 3.60982ZM171.297 3.40264C171.288 3.38485 170.957 3.37007 170.964 3.47082C170.988 3.79531 171.448 3.70193 171.297 3.40264ZM298.906 4.0505C297.001 3.83454 295.9 2.37379 298.009 2.67021C298.389 2.72598 297.154 3.05794 297.632 3.21802C298.496 3.50896 299.158 2.68415 300.021 3.22461C300.176 3.32385 299.014 4.06617 298.902 4.05217C298.904 4.05162 298.905 4.05106 298.906 4.0505ZM200.838 3.13673C200.827 3.12095 200.366 3.10745 200.354 3.12317C200.106 3.5038 201.035 3.53121 200.838 3.13673ZM151.928 2.74048C151.902 2.70687 150.836 2.67976 150.802 2.71096C150.248 3.33437 152.403 3.39102 151.928 2.74048ZM231.781 2.17714C232.278 1.79403 232.868 1.74787 233.26 2.22694C232.772 2.20241 232.278 2.19964 231.781 2.17714Z" fill="#4D5AEE"/>
</svg>
