<svg width="12" height="400" viewBox="0 0 12 400" fill="none" xmlns="http://www.w3.org/2000/svg">
<path d="M7.25384 3.73583C7.39434 5.9547 7.33223 8.90553 7.21666 11.135C7.18093 11.8331 6.96298 11.4817 6.929 11.9771C6.86248 12.9261 6.98114 13.7975 6.89878 14.7393C6.87024 15.0391 6.52814 14.6716 6.50592 14.987C6.38749 16.7694 6.50172 18.468 6.46032 20.2431C6.25745 29.0817 6.28149 37.9164 6.27982 46.8154C6.28077 49.8201 6.03667 53.3891 6.22204 56.4457C6.24389 56.7967 6.53508 56.5823 6.56051 56.6487C6.95036 57.6954 6.34934 57.3557 6.28211 58.0515C6.01853 60.9086 6.041 63.8214 6.20188 66.5844C6.20564 66.6475 6.21085 66.7039 6.21731 66.7541C6.32899 67.5785 6.81987 66.6384 6.52701 67.695C6.50613 67.7728 6.18833 67.4972 6.16012 67.8015C6.09674 68.4898 6.1753 69.8147 6.15986 70.3644C6.1285 71.4223 6.13467 71.5991 6.14842 72.615C6.16425 73.9887 6.03511 75.5426 6.13118 77.0153C6.15258 77.3277 6.46639 76.9079 6.52951 77.4062C6.59253 77.9037 6.58811 79.2399 6.52025 79.6972C6.45224 80.1474 6.1967 79.9562 6.14024 80.0363C5.66303 80.6714 6.36439 82.1598 6.38445 82.3552C6.73032 85.9301 6.39707 88.9635 6.45568 92.3275C6.50229 94.9576 6.67345 97.5313 6.69822 99.9971C6.72705 102.967 6.59258 105.27 6.67126 108.117C6.67915 108.414 7.05043 108.059 7.06084 108.423C7.17095 112.285 7.19427 116.041 7.00551 119.884C6.98612 120.262 6.64652 119.781 6.60735 120.159C6.37469 122.468 5.78493 126.212 7.25141 127.599C7.2219 129.158 7.19662 131.071 6.93037 132.497C6.75905 133.417 6.38285 132.532 6.55625 133.658C6.59495 133.912 6.90526 133.575 6.93939 133.957C7.08292 135.572 7.0104 137.326 7.20057 138.883C7.24003 139.202 7.52169 139.11 7.57424 139.2C8.0003 139.953 7.33964 141.239 7.29484 141.519C6.9613 143.633 7.1348 145.249 7.15904 147.176C7.16461 147.63 7.53571 147.087 7.55473 147.523C7.64832 149.785 7.65657 152.155 7.52689 154.419C7.49714 154.923 7.16515 154.466 7.13435 154.707C7.00266 155.779 7.6182 155.976 7.50329 156.979C7.47984 157.19 7.20043 157.076 7.17063 157.115C6.70283 157.723 7.38942 158.234 7.40706 158.389C7.64536 160.345 6.95987 161.618 7.09323 163.533C7.1099 163.762 7.45188 163.238 7.47729 163.883C7.64788 168.136 7.62968 172.647 7.42231 176.873C7.39044 177.524 7.11874 177.064 7.08695 177.106C6.59075 177.782 7.27866 178.204 7.30798 178.416C7.5216 180.091 6.97847 181.68 7.80889 182.818C7.65202 189.972 8.23103 197.073 7.62878 204.168C7.62195 204.258 7.28403 204.102 7.27185 204.283C7.12169 206.46 7.63537 206.044 8.29731 207.463C8.46349 207.817 7.71356 208.92 7.65888 209.018C7.45731 209.373 6.95241 209.017 6.91425 209.136C6.61542 210.116 8.26127 209.928 8.28488 211.246C8.28285 211.288 7.97636 211.12 7.94813 211.231C7.85942 211.577 7.98598 211.916 7.88743 212.255C7.65924 213.031 6.86295 213.32 7.3499 214.494C7.41303 214.643 8.34419 214.397 8.32078 215.584C8.31058 216.052 8.36368 218.167 8.313 218.734C8.26262 219.314 7.95429 218.922 7.94196 218.963C7.57083 220.531 7.3953 219.942 6.81906 220.736C6.24506 221.53 7.64309 221.288 7.80516 221.605C7.9668 221.922 7.65819 223.078 7.54886 223.363C7.43948 223.648 7.24179 223.299 7.1815 223.551C6.78802 225.227 7.89018 224.272 8.12233 224.818C8.67195 226.107 7.65016 227.139 7.56927 228.335C7.54744 228.659 7.77958 228.391 7.80678 228.679C7.91142 229.82 7.59868 230.488 7.91871 231.767C7.97086 231.976 8.61414 233.002 8.16729 233.683C8.10282 233.78 7.83899 233.514 7.78944 233.996C7.715 234.717 7.68125 236.018 7.78152 236.793C7.85569 237.366 8.27099 236.701 8.1511 237.425C8.09754 237.747 7.83734 237.157 7.75755 237.761C7.67773 238.363 7.71579 239.9 7.73474 240.487C7.7538 241.068 8.07199 240.743 8.09464 240.79C8.22457 241.07 8.40023 242.175 8.40158 242.273C8.52807 247.205 8.06431 251.861 8.32983 256.655C8.35024 257.034 8.68724 256.775 8.69388 256.833C8.85991 258.129 7.93393 257.121 7.64611 258.034C8.33672 257.89 8.22072 258.428 8.31294 259.343C8.35795 259.784 8.62199 259.539 8.65017 259.579C9.0693 260.227 8.55102 260.693 8.44542 260.813C8.05702 261.254 8.53342 261.719 8.27391 262.02C8.01637 262.321 7.61473 261.646 7.63535 262.528C7.88778 262.771 8.52438 262.105 8.6413 262.773C9.08335 265.288 8.65753 269.962 8.64083 271.997C8.62397 274.02 8.68143 274.678 8.61275 275.858C8.48823 277.974 8.95539 277.192 9.1989 278.502C9.44247 279.817 8.24776 279.197 7.99676 279.391C7.74581 279.582 8.01116 279.78 7.87551 280.015C7.73988 280.248 7.55802 279.751 7.51522 280.295C7.47247 280.84 7.95132 282.321 8.22074 282.509C8.79152 282.908 9.37097 282.225 9.18886 283.672C9.17801 283.755 8.86207 283.491 8.83628 283.81C8.6418 286.343 8.67367 288.963 8.50657 291.475C8.48312 291.821 8.13147 291.518 8.1139 291.719C7.92991 293.819 8.50018 293.059 9.16906 294.198C8.30164 293.955 7.78511 294.6 7.80852 296.195C7.8223 297.154 8.19618 296.982 8.47288 297.599C8.55627 297.783 8.30968 298.468 8.4891 298.588C9.07566 298.983 9.71272 298.333 9.48394 299.984C9.47295 300.056 9.15177 299.833 9.137 300.081C9.03996 301.685 9.64933 301.866 9.75378 303.6C9.83571 304.96 9.50966 307.391 9.47747 308.948C8.50684 308.932 8.75533 310.398 9.43487 310.983C9.42569 311.998 9.48288 313.077 9.40789 314.05C9.38237 314.385 9.09757 314.171 9.06798 314.213C8.60354 314.868 9.26209 315.293 9.2915 315.51C9.58174 317.858 9.1231 319.787 9.64565 322.033C9.66445 322.112 10.3406 322.23 9.85946 322.842C9.82625 322.881 9.50626 322.142 9.50165 323.203C9.49711 324.271 9.17158 326.259 9.51028 327.721C9.59184 328.075 10.155 328.963 9.74066 329.692C9.68436 329.789 9.48921 329.687 9.38418 329.828C9.0496 330.282 9.73509 330.515 9.166 331.053C8.59695 331.591 8.18343 332.696 8.60943 334.173C8.62189 334.22 9.16805 334.561 9.16795 335.028C9.16731 335.773 9.07406 336.838 9.09152 337.609C9.1001 337.98 9.43101 337.737 9.4383 337.801C9.67122 340.291 9.40455 342.074 9.32341 344.756C9.30787 345.247 9.79055 346.651 9.44645 347.611C9.06981 348.663 7.40479 347.622 7.84035 350.013C8.01468 350.975 10.1246 352.16 9.07449 353.916C9.40368 357.278 8.90714 360.424 9.35131 363.79C9.37103 363.941 9.96245 364.411 9.96103 364.768C9.95779 365.298 9.69077 365.594 9.67973 365.973C9.62663 367.561 9.88615 369.01 9.87788 370.543C9.87533 371.125 9.59003 370.926 9.58697 371.621C9.58416 372.314 9.96341 372.77 9.80152 373.714C9.67802 374.428 8.93305 375.149 8.8619 376.09C9.61014 376.112 9.60654 376.758 9.8249 377.902C9.86723 378.122 10.1231 377.881 10.1565 377.985C10.2984 378.407 10.09 378.804 10.2433 379.205C10.2802 379.302 10.5356 379.302 10.5801 379.382C10.9686 380.057 10.4149 381.192 10.3185 381.388C9.95231 382.135 10.2907 382.475 10.1516 383.046C10.0125 383.616 9.81 382.771 9.73141 383.435C9.5689 384.812 9.6426 386.58 9.65643 387.972C9.66353 388.528 9.99736 388.143 10.0063 388.222C10.1138 389.369 9.77268 390.538 10.4632 391.163C8.72268 391.993 10.6462 391.853 10.3251 393.504C10.2991 393.634 9.47206 393.814 9.34106 393.319C9.21017 392.824 9.45576 392.065 9.25314 391.379C9.20555 391.217 8.41058 390.296 8.36112 390.169C7.97454 389.176 9.2123 389.012 9.27945 388.958C10.0036 388.345 9.14477 387.219 9.08131 386.918C8.79069 385.543 8.94363 384.368 8.73313 383.218C8.59691 382.467 7.78308 382.408 7.7971 381.815C7.84325 379.846 8.9641 379.139 7.94746 377.305C7.73059 376.912 6.84978 377.323 7.52204 375.888C7.56441 375.797 8.18395 374.732 7.76868 374.126C7.71633 374.05 7.45757 374.057 7.43397 373.956C7.28093 373.279 7.47882 372.822 7.36656 372.084C7.2543 371.347 7.09086 370.46 7.16323 369.615C7.20644 369.105 7.67672 368.444 7.79033 368.199C8.11786 367.505 7.54685 366.779 7.9509 366.346C8.35696 365.91 9.00079 366.737 9.2477 365.607C8.57456 365.578 7.88268 365.495 7.20526 365.44C7.18405 362.978 7.35724 360.545 7.28244 358.066C7.2725 357.759 6.91674 358.08 6.89676 357.751C6.81407 356.363 7.04972 355.146 6.92098 353.71C6.81995 352.598 6.41508 351.386 6.29756 350.225C7.05415 349.505 6.76144 347.772 6.80897 346.514C6.82528 346.073 7.03131 346.099 7.09267 345.785C7.3192 344.599 6.64932 345.165 6.53645 344.843C6.05463 343.462 7.59142 343.315 7.52378 341.68C7.52072 341.594 6.68124 340.55 6.62752 340.405C6.27765 339.485 6.91027 340.246 6.96039 339.666C7.05201 338.605 7.23467 337.869 6.97194 336.631C6.8942 336.269 6.36713 335.405 6.74987 334.693C6.79998 334.599 7.07206 334.645 7.08659 334.57C7.32685 333.213 6.47424 333.193 6.17176 332.426C5.86934 331.659 6.43598 330.457 6.60111 330.212C7.02818 329.57 6.79728 330.695 6.84093 330.728C7.36031 331.123 7.25647 330.255 7.28777 329.591C8.12141 329.48 8.05455 328.553 7.31687 328.903C7.23632 328.942 7.32354 329.457 7.28777 329.591C6.45765 329.023 6.3343 328.006 7.07996 326.868C7.42945 326.335 7.85695 326.825 7.67505 325.23C7.59287 324.505 7.02277 324.799 6.85435 324.158C6.47005 322.692 6.97224 320.773 6.8605 319.262C6.81994 318.714 6.5147 319.254 6.47612 318.88C6.37278 317.886 6.59326 317.005 6.45431 316.009C6.44132 315.919 6.1157 316.146 6.10592 315.835C6.02542 313.486 6.1998 311.436 6.16136 308.966C6.14267 307.774 5.92279 305.652 5.93732 304.422C5.9605 302.287 6.39318 299.674 6.24389 297.838C6.14804 296.646 5.82306 296.914 5.58932 296.407C5.13631 295.43 5.88511 293.675 6.00169 293.439C6.00556 293.432 6.10155 294.453 6.26102 293.905C6.60796 293.581 6.00343 293.451 6.00169 293.439C6.07695 293.283 6.11535 291.241 6.04512 290.838C6.00675 290.619 5.69661 290.747 5.68251 290.633C5.35458 287.924 5.22596 285.163 5.32266 282.39C5.3281 282.341 5.67878 282.408 5.68721 282.293C5.81397 280.685 5.36833 279.667 5.09112 278.353C4.81399 277.036 4.88056 276.001 5.46624 275.197C5.37288 274.195 5.6125 272.753 5.75872 271.924C5.90495 271.095 5.22284 270.993 5.2081 270.92C4.7376 268.664 5.10371 267.352 5.12288 265.015C5.13337 263.916 4.99502 261.677 4.89928 260.471C4.82243 259.515 4.97161 258.937 4.85413 258.059C4.83842 257.94 4.53774 258.065 4.52544 258.029C4.14579 257.054 4.89438 257.513 5.02301 257.308C5.49079 256.565 5.73882 256.107 5.4905 254.858C5.43359 254.57 4.35286 253.748 4.28124 253.224C4.19006 252.541 4.57672 252.795 4.47146 252.077C4.4628 252.016 4.22733 252.033 4.22982 251.585C4.23831 249.51 4.33567 247.254 4.27432 245.116C4.26684 244.824 3.8996 245.205 3.88265 244.783C3.80335 242.8 3.77937 240.655 3.9199 238.695C3.95572 238.216 4.22276 238.512 4.29865 238.406C4.7577 237.761 4.05854 236.871 4.0429 236.723C3.65189 233.17 4.22383 230.519 3.86529 226.873C3.84453 226.675 3.0854 225.171 3.70177 224.486C3.74276 224.439 4.37376 223.76 3.92397 223.178C3.89584 223.142 3.57224 223.563 3.59324 222.838C3.61418 222.113 3.37279 220.953 3.71896 219.955C3.82797 219.638 4.45619 218.89 3.92862 217.958C3.89185 217.897 2.71055 216.452 3.49875 215.917C3.62851 215.83 4.4738 215.903 4.02143 214.782C3.93379 214.568 3.75244 214.963 3.62498 214.397C3.42863 213.531 3.63449 212.377 3.24001 211.321C3.17023 211.137 2.58373 210.358 3.00736 209.719C3.0737 209.619 3.35868 209.802 3.38437 209.468C3.50796 207.886 3.29028 206.216 3.45669 204.583C3.51511 204.006 3.97563 204.292 4.08719 203.69C4.1987 203.088 4.29499 201.881 4.07599 201.26C3.8569 200.639 3.14304 201.334 3.06864 200.4C2.74612 196.379 3.10025 192.263 3.09229 188.229C3.09115 187.629 2.8401 188.13 2.8198 187.248C2.74362 183.983 2.40091 178.281 2.90427 175.479C3.30628 173.169 3.69308 176.06 3.84241 174.298C3.91348 173.449 3.05384 172.55 3.02375 172.347C2.71938 170.362 3.06933 168.982 2.92397 167.213C2.89384 166.849 2.55805 167.213 2.53619 166.902C2.45859 165.848 2.59165 164.715 2.54581 163.681C2.52448 163.218 2.26475 163.308 2.27755 162.883C2.30517 161.865 2.39946 160.968 2.62724 159.98C2.648 159.889 2.98339 160.488 2.98255 159.742C2.98028 158.533 3.19597 157.037 2.92281 155.668C2.84069 155.259 2.24332 155.246 2.6401 154.343C2.72296 154.154 3.44392 154.38 2.80652 153.348C2.70055 153.174 1.83494 151.442 2.35875 150.582C2.49659 150.354 3.07328 149.771 2.97255 149.278C2.95668 149.211 2.64066 149.485 2.60231 149.076C2.47259 147.626 2.48147 146.159 2.35466 144.632C2.32027 144.231 1.99879 144.835 1.95813 144.237C1.84584 142.591 1.89518 140.551 1.97176 138.967C2.00063 138.383 2.28244 138.782 2.31162 138.739C2.78639 138.048 2.12277 137.658 2.08059 137.433C1.82731 136.045 2.11632 134.909 2.01216 133.602C1.98421 133.24 1.67552 133.502 1.64636 133.431C1.36066 132.686 1.93259 133.234 1.98642 132.76C2.13911 131.431 2.08869 129.964 2.02596 128.644C2.00246 128.16 1.64876 128.711 1.63187 128.276C1.52437 125.665 1.51172 122.907 1.66876 120.393C1.69897 119.919 1.98367 120.212 2.04582 120.112C2.48094 119.427 1.85437 118.436 1.79214 118.194C1.5087 117.127 1.74883 116.709 1.68658 115.771C1.37914 111.249 1.44556 105.568 1.47381 101.308C1.50747 95.666 1.69906 91.3112 1.53929 86.0027C1.52935 85.6573 1.16338 86.0119 1.15004 85.7145C0.995321 81.9068 1.07713 78.1824 0.905607 74.4258C0.892246 74.1208 0.547157 74.5664 0.513869 74.0775C0.443748 73.1117 0.439309 71.7272 0.534381 70.6982C0.579974 70.1899 0.894123 70.865 0.933841 70.3539C1.02423 69.2007 1.03051 67.9885 0.960932 66.8437C0.958733 66.8058 0.956461 66.7681 0.954116 66.7304C0.920226 66.1988 0.573292 67.0071 0.557358 66.3166C0.442282 61.6643 0.305484 57.281 0.692607 52.5831C0.719287 52.2658 1.44744 51.9746 1.29559 51.313C1.09134 51.2665 0.852126 51.2733 0.634354 51.2552C0.40345 44.5718 0.546981 38.0673 0.471716 31.3158C0.468429 31.0294 0.0884895 31.5302 0.0801702 30.977C0.0338943 27.9108 -0.127837 24.7173 0.204354 21.5304C0.23661 21.205 0.922423 21.3506 0.80324 20.414C0.781681 20.2544 0.666795 18.8486 0.51195 18.4633C0.488733 18.4135 0.174269 18.68 0.157182 18.2185C0.0639491 15.5647 0.090003 12.7887 0.240099 10.1139C0.264824 9.67559 0.61218 10.1348 0.632771 9.82455C0.776684 7.64863 0.47965 5.32157 0.75421 3.2408C0.939476 1.85573 1.53461 2.35066 2.1007 1.60168C2.1808 1.51528 2.18041 0.639183 2.51619 0.591315C3.35992 0.466082 4.2915 0.865682 5.19019 0.687948C5.28709 0.675178 5.2787 0.362898 5.30743 0.175219C5.33654 -0.0141103 5.40116 -0.103061 5.63771 0.185728C5.66888 0.220134 5.83662 1.04901 5.99908 1.25378C6.11139 1.40173 6.44938 1.14501 6.59445 1.41721C6.73967 1.70638 6.45806 2.02578 6.63132 2.50947C6.80642 2.9784 7.19211 2.77442 7.25384 3.73583ZM6.41196 268.199C6.72504 267.432 5.52686 267.341 5.82766 268.159C5.84362 268.199 6.39663 268.239 6.41196 268.199ZM8.25977 360.542C8.76917 359.533 7.98095 358.863 7.58631 359.576C7.19211 360.288 8.10538 360.849 8.25977 360.542ZM8.83354 370.878C9.22822 369.703 7.52864 369.551 7.89436 370.794C7.91506 370.867 8.81063 370.947 8.83354 370.878ZM2.32073 5.02385C2.33672 5.03051 2.34136 4.37118 2.32557 4.36817C1.94009 4.03661 1.93028 5.30653 2.32073 5.02385ZM9.44069 381.136C9.66347 380.768 9.37941 379.725 9.10237 380.183C8.8795 380.551 9.16358 381.595 9.44069 381.136ZM6.98595 228.378C7.00356 228.365 7.01178 227.92 6.91118 227.93C6.58718 227.966 6.68967 228.585 6.98595 228.378ZM9.78092 398.588C9.79722 396.007 11.1696 394.418 11.0632 397.229C11.044 397.739 10.5962 396.141 10.4818 396.791C10.2735 397.98 11.1678 398.751 10.7186 399.969C10.6364 400.19 9.77688 398.736 9.77888 398.584C9.77956 398.585 9.78024 398.587 9.78092 398.588ZM7.84096 267.735C7.8565 267.72 7.86067 267.108 7.84472 267.094C7.4591 266.77 7.45049 268.001 7.84096 267.735ZM7.27296 202.53C7.30607 202.495 7.31276 201.073 7.2809 201.027C6.64694 200.297 6.63156 203.172 7.27296 202.53ZM9.45204 308.973C9.84609 309.635 9.90545 310.437 9.4353 310.98C9.44881 310.313 9.44053 309.642 9.45204 308.973Z" fill="#4D5AEE"/>
</svg>
